<svg width="145" height="72" viewBox="0 0 145 72" fill="none" xmlns="http://www.w3.org/2000/svg">
<mask id="mask0_56_24" style="mask-type:alpha" maskUnits="userSpaceOnUse" x="0" y="0" width="145" height="73">
<rect width="145" height="73" fill="#D9D9D9"/>
</mask>
<g mask="url(#mask0_56_24)">
<path fill-rule="evenodd" clip-rule="evenodd" d="M76.3285 23.802C76.3285 24.3978 76.1523 24.9802 75.8221 25.4756C75.4919 25.971 75.0225 26.3571 74.4734 26.5851C73.9243 26.8131 73.3201 26.8728 72.7371 26.7565C72.1542 26.6403 71.6187 26.3534 71.1984 25.9321C70.7782 25.5108 70.492 24.9741 70.376 24.3897C70.2601 23.8054 70.3196 23.1997 70.547 22.6492C70.7745 22.0988 71.1596 21.6283 71.6538 21.2973C72.148 20.9663 72.729 20.7896 73.3234 20.7896C74.1125 20.8148 74.8624 21.1402 75.4206 21.6998C75.9788 22.2594 76.3035 23.0111 76.3285 23.802ZM64.2078 29.7264V30.4293C63.6462 29.8278 62.9617 29.3549 62.201 29.043C61.4403 28.731 60.6214 28.5874 59.8003 28.6218C58.6304 28.608 57.4697 28.8305 56.3874 29.276C55.3051 29.7215 54.3233 30.3809 53.5007 31.2149C52.6781 32.0489 52.0314 33.0404 51.5992 34.1302C51.1671 35.2201 50.9582 36.3861 50.9852 37.5586C50.9445 38.7394 51.1431 39.9162 51.5691 41.0178C51.9951 42.1195 52.6397 43.1231 53.4637 43.9679C54.2877 44.8126 55.2742 45.4811 56.3633 45.9328C57.4525 46.3845 58.6217 46.61 59.8003 46.5957C60.63 46.6245 61.4558 46.4682 62.2179 46.1383C62.9801 45.8084 63.6598 45.313 64.2078 44.6879V45.4912C64.2078 45.6509 64.2711 45.8042 64.3839 45.9172C64.4966 46.0302 64.6494 46.0936 64.8088 46.0936H68.5152V29.0235H64.8088C64.6407 29.0478 64.4871 29.1325 64.3766 29.2617C64.2661 29.391 64.2061 29.5561 64.2078 29.7264ZM64.2078 40.6714C63.7577 41.224 63.1931 41.6718 62.5531 41.9839C61.9131 42.296 61.2131 42.4649 60.5015 42.4788C57.5965 42.4788 55.3927 40.6714 55.3927 37.5586C55.3776 36.8911 55.5009 36.2277 55.7549 35.6104C56.009 34.9932 56.3881 34.4356 56.8685 33.9731C57.3488 33.5105 57.9197 33.153 58.5451 32.9232C59.1705 32.6934 59.8367 32.5964 60.5015 32.6383C61.2239 32.65 61.9339 32.8281 62.5766 33.1589C63.2194 33.4897 63.7775 33.9644 64.2078 34.5462V40.6714ZM71.2198 29.0235H75.5272V46.0936H71.2198V29.0235ZM136.031 28.6218C135.209 28.5874 134.391 28.731 133.63 29.043C132.869 29.3549 132.185 29.8278 131.623 30.4293V20.8901H127.316V46.0936H131.022C131.181 46.0936 131.334 46.0302 131.447 45.9172C131.56 45.8042 131.623 45.6509 131.623 45.4912V44.6879C132.171 45.313 132.851 45.8084 133.613 46.1383C134.375 46.4682 135.201 46.6245 136.031 46.5957C137.201 46.5964 138.359 46.3609 139.437 45.9031C140.514 45.4454 141.488 44.7748 142.302 43.9314C143.115 43.0881 143.751 42.0891 144.17 40.9942C144.59 39.8993 144.786 38.7309 144.745 37.5586C144.786 36.3909 144.59 35.2272 144.169 34.1377C143.748 33.0482 143.111 32.0557 142.296 31.2202C141.482 30.3848 140.506 29.7237 139.429 29.2771C138.352 28.8304 137.196 28.6075 136.031 28.6218ZM135.329 42.4788C134.604 42.4832 133.888 42.312 133.243 41.9799C132.598 41.6477 132.042 41.1644 131.623 40.5709V34.5462C132.068 33.9802 132.629 33.5168 133.269 33.1876C133.908 32.8584 134.611 32.6711 135.329 32.6383C138.234 32.6383 140.438 34.4458 140.438 37.5586C140.438 40.6714 138.234 42.4788 135.329 42.4788ZM125.012 36.0524V46.194H120.704V36.454C120.704 33.7429 119.803 32.5379 117.399 32.5379C116.714 32.5655 116.042 32.7309 115.423 33.0241C114.803 33.3174 114.249 33.7326 113.793 34.2449V46.0936H109.485V29.0235H112.891C113.07 29.0448 113.236 29.1257 113.363 29.2532C113.49 29.3806 113.571 29.5473 113.592 29.7264V30.4293C114.192 29.8226 114.912 29.3484 115.706 29.0371C116.499 28.7258 117.349 28.5844 118.2 28.6218C119.917 28.5332 121.602 29.1083 122.908 30.2284C124.411 31.5338 125.012 33.1404 125.012 36.0524ZM98.9672 28.6218C98.1461 28.5874 97.3272 28.731 96.5665 29.043C95.8059 29.3549 95.1213 29.8278 94.5597 30.4293V20.8901H90.2523V46.0936H93.8585C94.0284 46.0954 94.1931 46.0353 94.322 45.9245C94.451 45.8136 94.5355 45.6597 94.5597 45.4912V44.6879C95.0924 45.3052 95.755 45.7964 96.4998 46.1263C97.2446 46.4562 98.0531 46.6165 98.8671 46.5957C100.046 46.61 101.215 46.3845 102.304 45.9328C103.393 45.4811 104.38 44.8126 105.204 43.9679C106.028 43.1231 106.672 42.1195 107.098 41.0178C107.524 39.9162 107.723 38.7394 107.682 37.5586C107.723 36.3909 107.527 35.2272 107.106 34.1377C106.685 33.0482 106.048 32.0557 105.233 31.2202C104.418 30.3848 103.443 29.7237 102.366 29.2771C101.289 28.8304 100.133 28.6075 98.9672 28.6218ZM98.266 42.4788C97.5407 42.4832 96.825 42.312 96.1798 41.9799C95.5345 41.6477 94.9788 41.1644 94.5597 40.5709V34.5462C95.0047 33.9802 95.566 33.5168 96.2056 33.1876C96.8451 32.8584 97.5479 32.6711 98.266 32.6383C98.9308 32.5964 99.597 32.6934 100.222 32.9232C100.848 33.153 101.419 33.5105 101.899 33.9731C102.379 34.4356 102.759 34.9932 103.013 35.6104C103.267 36.2277 103.39 36.8911 103.375 37.5586C103.375 40.6714 101.171 42.4788 98.266 42.4788ZM86.4458 28.6218C87.1194 28.6041 87.7925 28.6716 88.4493 28.8227V32.8392C88.4493 32.8392 84.8431 31.6342 82.5392 34.2449V46.194H78.2318V29.0235H81.9381C82.2386 29.0235 82.5392 29.4251 82.5392 29.7264V30.4293C83.5564 29.3392 84.9583 28.6906 86.4458 28.6218ZM41.3688 44.5874C41.1966 44.027 40.9613 43.488 40.6676 42.9808C40.3671 42.1775 39.9664 41.3742 39.6659 40.6714C36.4604 33.8433 33.1547 27.0152 29.6487 20.1872L29.4484 19.8859L28.4467 17.7773C27.9599 16.8882 27.3897 16.0476 26.7438 15.2669C26.0802 14.3734 25.2196 13.6457 24.2291 13.1406C23.2387 12.6355 22.1452 12.3666 21.034 12.355C19.9168 12.3545 18.814 12.6071 17.8079 13.0939C16.8018 13.5808 15.9185 14.2893 15.2241 15.1665C14.5875 15.8965 14.0487 16.7067 13.6213 17.5764C13.2207 18.3797 12.9201 19.0826 12.5195 19.7855V19.9863C9.01346 26.8144 5.60764 33.6425 2.50233 40.4705H2.30199C2.00147 41.1734 1.70096 41.9767 1.30028 42.78L0.599077 44.487C0.041508 46.0632 -0.130261 47.7506 0.0982205 49.4073C0.333104 51.0736 1.00355 52.6479 2.04153 53.9705C3.07951 55.2932 4.44807 56.317 6.00832 56.9382C7.14598 57.4297 8.376 57.6694 9.61449 57.6411H10.8165C12.4179 57.5087 13.9639 56.9921 15.3242 56.1349C17.4574 54.9061 19.3566 53.3083 20.9338 51.4155C22.5345 53.2847 24.4294 54.8788 26.5434 56.1349C27.9128 56.9568 29.4583 57.4388 31.0511 57.5407H32.2532C33.4917 57.569 34.7217 57.3293 35.8594 56.8378C37.4196 56.2166 38.7882 55.1928 39.8261 53.8701C40.8641 52.5475 41.5346 50.9731 41.7695 49.3068C42.133 47.6971 41.9931 46.0142 41.3688 44.487V44.5874ZM20.9338 46.8969C18.5297 43.8846 16.927 40.9726 16.4261 38.4623C16.217 37.5748 16.1494 36.6598 16.2258 35.7511C16.3265 35.0571 16.6023 34.4004 17.0272 33.8433C17.4666 33.2156 18.052 32.7047 18.7327 32.3547C19.4134 32.0048 20.1689 31.8264 20.9338 31.835C21.7184 31.7906 22.5009 31.9526 23.2038 32.3049C23.9066 32.6572 24.5054 33.1875 24.9407 33.8433C25.3338 34.4084 25.5753 35.0654 25.6419 35.7511C25.8045 36.6515 25.7703 37.5765 25.5417 38.4623C25.0409 40.8722 23.4381 43.7841 20.9338 46.8969ZM39.0648 49.106C38.8809 50.255 38.407 51.3379 37.6882 52.2517C36.9694 53.1656 36.0295 53.8801 34.9578 54.3275C33.8513 54.7928 32.6441 54.9657 31.4518 54.8295C30.2414 54.6861 29.078 54.2746 28.046 53.6246C26.1181 52.4356 24.3932 50.9439 22.9373 49.2064C25.431 46.3202 27.2758 42.9298 28.3465 39.2656C28.657 37.9842 28.725 36.6559 28.5469 35.3495C28.4501 34.2488 28.032 33.201 27.3448 32.3371C26.6502 31.3098 25.7069 30.4761 24.6031 29.9141C23.4993 29.3521 22.2713 29.0802 21.034 29.1239C19.7844 29.0907 18.5458 29.3665 17.4277 29.9269C16.3096 30.4873 15.3463 31.3151 14.6231 32.3371C14.0196 33.2475 13.6104 34.2731 13.421 35.3495C13.1909 36.6532 13.2594 37.9923 13.6213 39.2656C14.3225 42.1775 16.1256 45.5916 19.1308 49.3068C17.6421 51.0501 15.8834 52.5419 13.9219 53.725C12.8655 54.3036 11.7103 54.6783 10.516 54.8295C9.36543 55.0081 8.18803 54.8693 7.11021 54.4279C6.00805 53.9983 5.04342 53.2759 4.31985 52.3383C3.59629 51.4007 3.14111 50.2833 3.00319 49.106C2.79494 47.9203 2.93412 46.6996 3.40387 45.5916C3.54042 45.0799 3.70767 44.5769 3.90473 44.0854C4.30541 43.3825 4.60593 42.5792 5.00661 41.8763C8.11192 35.0482 11.5177 28.1198 15.0237 21.3921V21.0909C15.4244 20.4884 15.7249 19.7855 16.1256 19.0826C16.4288 18.3592 16.8336 17.683 17.3277 17.0744C17.7791 16.5446 18.3397 16.1192 18.9709 15.8275C19.6021 15.5358 20.2889 15.3847 20.9839 15.3847C21.679 15.3847 22.3658 15.5358 22.997 15.8275C23.6282 16.1192 24.1888 16.5446 24.6402 17.0744C25.1343 17.683 25.5391 18.3592 25.8422 19.0826C26.2429 19.7855 26.5434 20.4884 26.9441 21.0909V21.3921C30.6504 28.1198 33.9561 35.0482 37.0614 41.7759C37.4621 42.4788 37.7626 43.2821 38.1633 43.985C38.3603 44.4765 38.5276 44.9794 38.6642 45.4912C39.044 46.6211 39.1806 47.8189 39.0648 49.0056V49.106Z" fill="black" fill-opacity="0.7"/>
</g>
</svg>
