<svg width="92" height="49" viewBox="0 0 92 49" fill="none" xmlns="http://www.w3.org/2000/svg">
<path d="M35.6281 44.6287V48.2435H35.9286C36.7495 48.4371 37.5895 48.5382 38.4329 48.5447H40.6366C41.3495 48.5587 42.0598 48.457 42.7402 48.2435C43.5612 48.0827 44.3231 47.7008 44.944 47.139C45.4644 46.6649 45.8747 46.0822 46.1461 45.432C46.3943 44.8619 46.5224 44.2465 46.5224 43.6245C46.5224 43.0025 46.3943 42.3872 46.1461 41.8171C45.897 41.2091 45.5213 40.6613 45.0442 40.2105C44.5776 39.7275 43.9891 39.3805 43.3413 39.2064L40.6366 38.3027C40.3361 38.1018 40.0356 38.0014 39.9354 37.4994C39.8369 37.3889 39.7824 37.2459 39.7824 37.0977C39.7824 36.9495 39.8369 36.8065 39.9354 36.6961C39.9354 36.5956 40.0356 36.5956 40.0356 36.3948C40.0356 36.194 40.2359 36.2944 40.3361 36.2944H40.5365C40.7939 36.0791 41.1061 35.94 41.438 35.8928H43.2411C43.9247 35.9293 44.5995 36.0646 45.2445 36.2944H45.4449V32.9808H45.0442C44.3991 32.7509 43.7244 32.6157 43.0408 32.5791C42.142 32.4788 41.2349 32.4788 40.3361 32.5791C39.1995 32.7141 38.1235 33.1664 37.2308 33.8845C36.6001 34.3604 36.1426 35.0307 35.9286 35.7923C35.5307 36.8954 35.5307 38.1033 35.9286 39.2064C36.0805 39.8086 36.4341 40.3404 36.9303 40.7126L38.1323 41.6163L40.0356 42.4196H40.6366L41.0373 42.6204H41.1375L41.9389 43.1225C42.0431 43.1815 42.1274 43.2703 42.181 43.3777C42.2345 43.485 42.2548 43.6059 42.2394 43.7249V44.3274C42.2183 44.5024 42.1517 44.6688 42.0462 44.8098C41.9407 44.9508 41.8001 45.0615 41.6384 45.1307C41.3133 45.3482 40.9266 45.4539 40.5365 45.432C40.0212 45.6336 39.449 45.6336 38.9337 45.432C38.2537 45.4459 37.5763 45.344 36.9303 45.1307C36.5436 45.1246 36.1646 45.021 35.8284 44.8295L35.6281 44.5282" fill="black" fill-opacity="0.7"/>
<path d="M20.8041 48.1431V43.8254C19.8833 44.3364 18.8513 44.6123 17.799 44.6287C17.2701 44.7012 16.7317 44.6481 16.2271 44.4737C15.7225 44.2993 15.2658 44.0084 14.894 43.6246C14.5691 43.4238 14.2869 43.1609 14.0635 42.8507C13.84 42.5406 13.6797 42.1894 13.5918 41.8171C13.3282 40.9734 13.2596 40.0806 13.3914 39.2064C13.6744 38.3427 14.1953 37.5769 14.894 36.9973C15.5744 36.5774 16.3188 36.2721 17.0978 36.0936C18.4836 35.9505 19.8803 36.2305 21.1046 36.8969H21.3049V32.5792H21.1046C19.9196 32.1475 18.648 32.0097 17.3983 32.1775C16.1873 32.2038 14.9944 32.4771 13.8923 32.9808C12.7731 33.4457 11.8028 34.2099 11.0875 35.1899C9.93741 36.6384 9.29472 38.426 9.25851 40.277C9.22231 42.1279 9.79461 43.9394 10.8871 45.432C11.9735 46.8675 13.5373 47.8651 15.2947 48.2436C17.1791 48.6626 19.1358 48.6282 21.0044 48.1431H20.8041Z" fill="black" fill-opacity="0.7"/>
<path d="M30.3193 48.4444V32.4788H26.3124V48.4444H30.3193Z" fill="black" fill-opacity="0.7"/>
<path d="M0.468081 19.6258C0.536481 20.1317 0.785621 20.5955 1.16927 20.9312C1.55502 21.2729 2.05721 21.4527 2.57166 21.4332C3.08035 21.4189 3.57139 21.2431 3.97406 20.9312C4.18217 20.788 4.34784 20.5911 4.45362 20.3613C4.5594 20.1316 4.60137 19.8775 4.57507 19.6258V15.2077C4.48683 14.6985 4.28102 14.2171 3.97406 13.8019C3.60417 13.4235 3.1001 13.207 2.57166 13.1994C2.30818 13.191 2.04606 13.2405 1.80376 13.3446C1.56146 13.4487 1.34488 13.6048 1.16927 13.8019C0.94859 13.9628 0.769691 14.1744 0.647663 14.4191C0.525635 14.6637 0.464054 14.9342 0.468081 15.2077V19.6258Z" fill="black" fill-opacity="0.7"/>
<path d="M11.4869 19.6258C11.5553 20.1316 11.8044 20.5954 12.1881 20.9311C12.5738 21.2729 13.076 21.4527 13.5904 21.4332C14.0991 21.4188 14.5902 21.2431 14.9928 20.9311C15.201 20.7879 15.3666 20.591 15.4724 20.3613C15.5782 20.1315 15.6202 19.8774 15.5939 19.6258V9.88574C15.527 9.37048 15.3189 8.88388 14.9928 8.47996C14.623 8.10158 14.1189 7.88503 13.5904 7.87749C13.3243 7.84325 13.0539 7.88107 12.8073 7.98702C12.5607 8.09297 12.3469 8.26318 12.1881 8.47996C11.7823 8.84047 11.5312 9.34408 11.4869 9.88574V19.6258Z" fill="black" fill-opacity="0.7"/>
<path d="M22.205 23.7428C22.2734 24.2487 22.5225 24.7125 22.9061 25.0482C23.2919 25.3899 23.7941 25.5697 24.3085 25.5502C24.8172 25.5359 25.3083 25.3601 25.7109 25.0482C25.919 24.905 26.0847 24.7081 26.1905 24.4783C26.2963 24.2486 26.3382 23.9945 26.3119 23.7428V2.45532C26.245 1.94006 26.037 1.45346 25.7109 1.04954C25.341 0.671161 24.837 0.454613 24.3085 0.447068C24.0424 0.412831 23.772 0.450651 23.5254 0.556599C23.2788 0.662546 23.0649 0.832755 22.9061 1.04954C22.5004 1.41005 22.2492 1.91366 22.205 2.45532V23.7428Z" fill="black" fill-opacity="0.7"/>
<path d="M33.3243 19.6258C33.3371 19.8765 33.3991 20.1221 33.5068 20.3487C33.6145 20.5753 33.7657 20.7784 33.9518 20.9463C34.1379 21.1142 34.3553 21.2436 34.5914 21.3272C34.8275 21.4107 35.0777 21.4468 35.3277 21.4332C35.8364 21.4189 36.3275 21.2431 36.7301 20.9312C36.9382 20.788 37.1039 20.5911 37.2097 20.3613C37.3155 20.1316 37.3575 19.8775 37.3312 19.6258V9.88578C37.2643 9.37052 37.0562 8.88392 36.7301 8.48C36.3602 8.10162 35.8562 7.88507 35.3277 7.87753C35.0624 7.85321 34.7953 7.89556 34.5504 8.00075C34.3056 8.10595 34.0907 8.27066 33.9253 8.48C33.5478 8.85079 33.3318 9.35606 33.3243 9.88578V19.6258Z" fill="black" fill-opacity="0.7"/>
<path d="M44.1424 19.6259C44.1552 19.8765 44.2172 20.1222 44.3249 20.3488C44.4326 20.5754 44.5839 20.7784 44.77 20.9463C44.9561 21.1142 45.1734 21.2437 45.4095 21.3272C45.6456 21.4108 45.8958 21.4468 46.1458 21.4333C46.6877 21.4333 47.2149 21.2571 47.6484 20.9312C47.8429 20.7754 47.9984 20.5763 48.1027 20.3497C48.207 20.1231 48.2573 19.8753 48.2494 19.6259V15.2077C48.1612 14.6986 47.9554 14.2171 47.6484 13.8019C47.2367 13.4256 46.7029 13.2116 46.1458 13.1995C45.6174 13.207 45.1133 13.4236 44.7434 13.8019C44.366 14.1727 44.15 14.678 44.1424 15.2077V19.6259Z" fill="black" fill-opacity="0.7"/>
<path d="M55.0612 19.6258C55.074 19.8765 55.136 20.1221 55.2437 20.3487C55.3514 20.5753 55.5026 20.7784 55.6887 20.9463C55.8748 21.1142 56.0921 21.2436 56.3282 21.3272C56.5643 21.4107 56.8145 21.4468 57.0646 21.4332C57.5732 21.4189 58.0643 21.2431 58.4669 20.9312C58.675 20.788 58.8407 20.5911 58.9465 20.3613C59.0523 20.1316 59.0943 19.8775 59.068 19.6258V9.88578C59.0011 9.37052 58.793 8.88392 58.4669 8.48C58.097 8.10162 57.593 7.88507 57.0646 7.87753C56.7993 7.85321 56.5321 7.89556 56.2873 8.00075C56.0424 8.10595 55.8276 8.27066 55.6622 8.48C55.2847 8.85079 55.0687 9.35606 55.0612 9.88578V19.6258Z" fill="black" fill-opacity="0.7"/>
<path d="M65.8781 23.7428C65.8909 23.9935 65.9529 24.2392 66.0606 24.4657C66.1683 24.6923 66.3195 24.8954 66.5056 25.0633C66.6918 25.2312 66.9091 25.3606 67.1452 25.4442C67.3813 25.5278 67.6315 25.5638 67.8815 25.5503C68.4233 25.5503 68.9506 25.3741 69.384 25.0482C69.5785 24.8924 69.734 24.6933 69.8383 24.4667C69.9427 24.2401 69.9929 23.9923 69.9851 23.7428V2.45536C69.9182 1.9401 69.7101 1.4535 69.384 1.04958C68.9723 0.673235 68.4385 0.459195 67.8815 0.447106C67.6162 0.422787 67.3491 0.465139 67.1042 0.570332C66.8593 0.675525 66.6445 0.84024 66.4791 1.04958C66.1016 1.42037 65.8856 1.92564 65.8781 2.45536V23.7428Z" fill="black" fill-opacity="0.7"/>
<path d="M76.7998 19.6258C76.8126 19.8765 76.8747 20.1221 76.9823 20.3487C77.09 20.5753 77.2413 20.7784 77.4274 20.9463C77.6135 21.1142 77.8308 21.2436 78.0669 21.3272C78.303 21.4107 78.5532 21.4468 78.8032 21.4332C79.3119 21.4189 79.803 21.2431 80.2056 20.9312C80.4137 20.788 80.5794 20.5911 80.6852 20.3613C80.791 20.1316 80.8329 19.8775 80.8066 19.6258V9.88578C80.7397 9.37052 80.5317 8.88392 80.2056 8.48C79.8357 8.10162 79.3317 7.88507 78.8032 7.87753C78.5379 7.85321 78.2708 7.89556 78.0259 8.00075C77.7811 8.10595 77.5662 8.27066 77.4008 8.48C77.0234 8.85079 76.8073 9.35606 76.7998 9.88578V19.6258Z" fill="black" fill-opacity="0.7"/>
<path d="M87.6172 19.6259C87.6499 20.1205 87.864 20.5854 88.2182 20.9313C88.6441 21.2714 89.1764 21.4492 89.7207 21.4333C90.2294 21.419 90.7205 21.2432 91.1231 20.9313C91.3176 20.7754 91.4731 20.5763 91.5774 20.3497C91.6817 20.1232 91.732 19.8753 91.7242 19.6259V15.2077C91.6359 14.6986 91.4301 14.2172 91.1231 13.802C90.8311 13.5381 90.4712 13.3615 90.0841 13.2923C89.6971 13.2231 89.2984 13.264 88.9334 13.4103C88.5684 13.5567 88.2516 13.8027 88.0189 14.1204C87.7863 14.4381 87.6471 14.8148 87.6172 15.2077V19.6259Z" fill="black" fill-opacity="0.7"/>
<path d="M62.3737 48.143V43.8253C61.4843 44.3243 60.4875 44.5999 59.4687 44.6286C58.9249 44.6942 58.3733 44.6382 57.8537 44.4646C57.3341 44.2909 56.8593 44.004 56.4635 43.6245C56.1387 43.4237 55.8565 43.1608 55.633 42.8506C55.4096 42.5405 55.2493 42.1893 55.1613 41.817C54.878 40.9746 54.8432 40.0681 55.0611 39.2063C55.2619 38.3305 55.7571 37.5505 56.4635 36.9972C57.1439 36.5773 57.8884 36.272 58.6673 36.0935C60.0849 35.9604 61.5107 36.2392 62.7743 36.8968H62.8745V32.5791H62.7743C61.5531 32.1538 60.2506 32.0164 58.9678 32.1774C57.7569 32.2037 56.5639 32.477 55.4618 32.9807C54.3426 33.4456 53.3724 34.2098 52.657 35.1898C51.507 36.6383 50.8643 38.4259 50.8281 40.2769C50.7919 42.1278 51.3641 43.9393 52.4567 45.4319C53.543 46.8674 55.1068 47.865 56.8642 48.2434C58.7487 48.6624 60.7054 48.628 62.574 48.143H62.3737Z" fill="black" fill-opacity="0.7"/>
<path d="M66.6827 40.3108C66.6922 41.5602 66.9752 42.7924 67.5118 43.9202C68.0483 45.0479 68.8254 46.0439 69.788 46.8376C70.7587 47.6211 71.8944 48.1729 73.1093 48.4512C74.3241 48.7296 75.5862 48.7272 76.8 48.4442C78.405 48.1023 79.8711 47.2863 81.0093 46.1014C82.1474 44.9166 82.9054 43.4172 83.1857 41.7965C83.4659 40.1759 83.2555 38.5082 82.5816 37.0085C81.9076 35.5088 80.801 34.2458 79.4045 33.3823C78.1601 32.6234 76.7422 32.1972 75.2866 32.1445C73.8309 32.0917 72.3861 32.4142 71.0903 33.0811C69.8041 33.8124 68.7246 34.8597 67.9536 36.1245C67.1825 37.3892 66.7452 38.8299 66.6827 40.3108ZM72.4927 37.198C73.3858 36.6112 74.4299 36.2972 75.4978 36.2943C76.0418 36.3457 76.57 36.5054 77.0516 36.7641C77.5332 37.0227 77.9585 37.375 78.3026 37.8005C78.9594 38.666 79.3117 39.7254 79.3043 40.8129C79.1349 41.9164 78.564 42.9179 77.7016 43.6244C76.8456 44.297 75.7838 44.6518 74.6964 44.6286C73.589 44.478 72.5832 43.9019 71.8916 43.0219C71.2653 42.1405 70.9165 41.0914 70.8899 40.0096C70.9591 39.4582 71.1363 38.926 71.4114 38.4434C71.6864 37.9609 72.0539 37.5377 72.4927 37.198Z" fill="black" fill-opacity="0.7"/>
</svg>
