<svg width="112" height="73" viewBox="0 0 112 73" fill="none" xmlns="http://www.w3.org/2000/svg">
<mask id="mask0_57_26" style="mask-type:alpha" maskUnits="userSpaceOnUse" x="0" y="0" width="112" height="73">
<rect width="112" height="73" fill="#D9D9D9"/>
</mask>
<g mask="url(#mask0_57_26)">
<path d="M14.2634 25.1033C0.239444 25.1033 -0.361578 35.9478 -0.161235 38.9602C-0.161235 38.9602 -0.962623 51.813 14.0631 51.813C26.885 51.813 27.486 43.6796 27.486 43.6796H21.5759C21.5759 43.6796 20.3739 47.9974 14.0631 47.9974C5.94919 47.7965 5.54851 39.9643 5.54851 39.9643H28.087C28.087 39.9643 29.79 25.1033 14.2634 25.1033ZM5.54851 36.1487C5.54851 36.1487 5.94919 29.1198 14.0631 29.1198C22.1769 29.1198 22.1769 36.1487 22.1769 36.1487H5.54851Z" fill="black" fill-opacity="0.7"/>
<path d="M43.6134 25.1034C36.5013 25.1034 33.5963 29.3207 33.5963 29.3207V15.2629H28.0869V45.0855C28.0869 45.0855 28.0869 48.5999 27.8866 50.809H33.396L33.5963 47.395C33.5963 47.395 36.1006 51.6123 43.6134 51.6123C51.1263 51.6123 57.0364 47.0938 57.2367 38.3578C57.4371 29.6219 50.7256 25.3042 43.6134 25.1034ZM42.4114 47.7966C33.5963 47.9975 33.7967 38.3578 33.7967 38.3578C33.7967 38.3578 33.396 29.1199 42.4114 28.9191C51.4268 28.7182 51.1263 38.5587 51.1263 38.5587C51.1263 38.5587 51.3266 47.7966 42.4114 47.7966Z" fill="black" fill-opacity="0.7"/>
<path d="M83.1821 44.8847C83.1821 40.9686 83.3825 37.5546 83.1821 35.2451C82.9818 32.9356 83.3825 25.5051 71.1616 25.1034C71.1616 25.1034 59.5418 24.0993 58.3397 32.8352H64.2498C64.2498 32.8352 64.6505 28.9191 70.7609 28.9191C76.8714 28.9191 77.4724 31.8311 77.4724 35.2451H70.9613C68.0563 35.2451 57.8389 35.5464 56.8372 41.8724C55.8355 48.1983 62.3466 51.8132 67.6556 51.8132C72.9647 51.8132 75.8696 50.2066 78.0734 47.395L78.2738 51.0099H83.3825C83.1821 50.8091 83.1821 48.8008 83.1821 44.8847ZM68.457 48.1983C68.457 48.1983 62.7472 48.1983 62.5469 43.6798C62.3466 39.1612 71.1616 39.1612 71.1616 39.1612H77.4724C77.4724 39.1612 78.4741 48.1983 68.457 48.1983Z" fill="black" fill-opacity="0.7"/>
<path d="M80.0742 26.1074H86.5853L96.2018 45.2862L105.618 26.1074H111.728L94.3987 60.2477H88.0879L93.0965 50.8089L80.0742 26.1074Z" fill="black" fill-opacity="0.7"/>
</g>
</svg>
