<svg width="193" height="45" viewBox="0 0 193 45" fill="none" xmlns="http://www.w3.org/2000/svg">
<circle cx="22.5" cy="22.5" r="22.5" fill="url(#paint0_linear_0_189)"/>
<path d="M60.3807 31.2557C59.0682 31.2557 57.9347 30.983 56.9801 30.4375C56.0313 29.8864 55.3011 29.108 54.7898 28.1023C54.2784 27.0909 54.0227 25.9006 54.0227 24.5312C54.0227 23.1847 54.2784 22.0028 54.7898 20.9858C55.3068 19.9631 56.0284 19.1676 56.9545 18.5994C57.8807 18.0256 58.9688 17.7386 60.2188 17.7386C61.0256 17.7386 61.7869 17.8693 62.5028 18.1307C63.2244 18.3864 63.8608 18.7841 64.4119 19.3239C64.9688 19.8636 65.4063 20.5511 65.7244 21.3864C66.0426 22.2159 66.2017 23.2045 66.2017 24.3523V25.2983H55.4716V23.2188H63.2443C63.2386 22.6278 63.1108 22.1023 62.8608 21.642C62.6108 21.1761 62.2614 20.8097 61.8125 20.5426C61.3693 20.2756 60.8523 20.142 60.2614 20.142C59.6307 20.142 59.0767 20.2955 58.5994 20.6023C58.1222 20.9034 57.75 21.3011 57.483 21.7955C57.2216 22.2841 57.0881 22.821 57.0824 23.4062V25.2216C57.0824 25.983 57.2216 26.6364 57.5 27.1818C57.7784 27.7216 58.1676 28.1364 58.6676 28.4261C59.1676 28.7102 59.7528 28.8523 60.4233 28.8523C60.8722 28.8523 61.2784 28.7898 61.642 28.6648C62.0057 28.5341 62.321 28.3438 62.5881 28.0938C62.8551 27.8438 63.0568 27.5341 63.1932 27.1648L66.0739 27.4886C65.892 28.25 65.5455 28.9148 65.0341 29.483C64.5284 30.0455 63.8807 30.483 63.0909 30.7955C62.3011 31.1023 61.3977 31.2557 60.3807 31.2557ZM80.13 17.9091L75.468 31H72.0589L67.397 17.9091H70.6868L73.6953 27.6335H73.8317L76.8487 17.9091H80.13ZM87.6151 31.2557C86.3026 31.2557 85.169 30.983 84.2145 30.4375C83.2656 29.8864 82.5355 29.108 82.0241 28.1023C81.5128 27.0909 81.2571 25.9006 81.2571 24.5312C81.2571 23.1847 81.5128 22.0028 82.0241 20.9858C82.5412 19.9631 83.2628 19.1676 84.1889 18.5994C85.1151 18.0256 86.2031 17.7386 87.4531 17.7386C88.2599 17.7386 89.0213 17.8693 89.7372 18.1307C90.4588 18.3864 91.0952 18.7841 91.6463 19.3239C92.2031 19.8636 92.6406 20.5511 92.9588 21.3864C93.277 22.2159 93.4361 23.2045 93.4361 24.3523V25.2983H82.706V23.2188H90.4787C90.473 22.6278 90.3452 22.1023 90.0952 21.642C89.8452 21.1761 89.4957 20.8097 89.0469 20.5426C88.6037 20.2756 88.0866 20.142 87.4957 20.142C86.8651 20.142 86.3111 20.2955 85.8338 20.6023C85.3565 20.9034 84.9844 21.3011 84.7173 21.7955C84.456 22.2841 84.3224 22.821 84.3168 23.4062V25.2216C84.3168 25.983 84.456 26.6364 84.7344 27.1818C85.0128 27.7216 85.402 28.1364 85.902 28.4261C86.402 28.7102 86.9872 28.8523 87.6577 28.8523C88.1065 28.8523 88.5128 28.7898 88.8764 28.6648C89.2401 28.5341 89.5554 28.3438 89.8224 28.0938C90.0895 27.8438 90.2912 27.5341 90.4276 27.1648L93.3082 27.4886C93.1264 28.25 92.7798 28.9148 92.2685 29.483C91.7628 30.0455 91.1151 30.483 90.3253 30.7955C89.5355 31.1023 88.6321 31.2557 87.6151 31.2557ZM96.0462 31V17.9091H99.0376V20.0909H99.174C99.4126 19.3352 99.8217 18.7528 100.401 18.3438C100.987 17.929 101.654 17.7216 102.404 17.7216C102.575 17.7216 102.765 17.7301 102.975 17.7472C103.191 17.7585 103.37 17.7784 103.512 17.8068V20.6449C103.381 20.5994 103.174 20.5597 102.89 20.5256C102.612 20.4858 102.342 20.4659 102.08 20.4659C101.518 20.4659 101.012 20.5881 100.563 20.8324C100.12 21.071 99.7706 21.4034 99.5149 21.8295C99.2592 22.2557 99.1314 22.7472 99.1314 23.304V31H96.0462ZM110.733 31.2557C109.426 31.2557 108.304 30.9688 107.366 30.3949C106.435 29.821 105.716 29.0284 105.21 28.017C104.71 27 104.46 25.8295 104.46 24.5057C104.46 23.1761 104.716 22.0028 105.227 20.9858C105.739 19.9631 106.46 19.1676 107.392 18.5994C108.33 18.0256 109.438 17.7386 110.716 17.7386C111.778 17.7386 112.719 17.9347 113.537 18.3267C114.361 18.7131 115.017 19.2614 115.506 19.9716C115.994 20.6761 116.273 21.5 116.341 22.4432H113.392C113.273 21.8125 112.989 21.2869 112.54 20.8665C112.097 20.4403 111.503 20.2273 110.759 20.2273C110.128 20.2273 109.574 20.3977 109.097 20.7386C108.619 21.0739 108.247 21.5568 107.98 22.1875C107.719 22.8182 107.588 23.5739 107.588 24.4545C107.588 25.3466 107.719 26.1136 107.98 26.7557C108.241 27.392 108.608 27.8835 109.08 28.2301C109.557 28.571 110.116 28.7415 110.759 28.7415C111.213 28.7415 111.619 28.6562 111.977 28.4858C112.341 28.3097 112.645 28.0568 112.889 27.7273C113.134 27.3977 113.301 26.9972 113.392 26.5256H116.341C116.267 27.4517 115.994 28.2727 115.523 28.9886C115.051 29.6989 114.409 30.2557 113.597 30.6591C112.784 31.0568 111.83 31.2557 110.733 31.2557ZM124.585 31.2557C123.306 31.2557 122.198 30.9744 121.261 30.4119C120.323 29.8494 119.596 29.0625 119.079 28.0511C118.567 27.0398 118.312 25.858 118.312 24.5057C118.312 23.1534 118.567 21.9687 119.079 20.9517C119.596 19.9347 120.323 19.1449 121.261 18.5824C122.198 18.0199 123.306 17.7386 124.585 17.7386C125.863 17.7386 126.971 18.0199 127.908 18.5824C128.846 19.1449 129.57 19.9347 130.082 20.9517C130.599 21.9687 130.857 23.1534 130.857 24.5057C130.857 25.858 130.599 27.0398 130.082 28.0511C129.57 29.0625 128.846 29.8494 127.908 30.4119C126.971 30.9744 125.863 31.2557 124.585 31.2557ZM124.602 28.7841C125.295 28.7841 125.874 28.5937 126.34 28.2131C126.806 27.8267 127.153 27.3097 127.38 26.6619C127.613 26.0142 127.729 25.2926 127.729 24.4972C127.729 23.696 127.613 22.9716 127.38 22.3239C127.153 21.6705 126.806 21.1506 126.34 20.7642C125.874 20.3778 125.295 20.1847 124.602 20.1847C123.891 20.1847 123.3 20.3778 122.829 20.7642C122.363 21.1506 122.013 21.6705 121.781 22.3239C121.553 22.9716 121.44 23.696 121.44 24.4972C121.44 25.2926 121.553 26.0142 121.781 26.6619C122.013 27.3097 122.363 27.8267 122.829 28.2131C123.3 28.5937 123.891 28.7841 124.602 28.7841ZM136.561 23.3295V31H133.476V17.9091H136.425V20.1335H136.578C136.879 19.4006 137.359 18.8182 138.018 18.3864C138.683 17.9545 139.504 17.7386 140.482 17.7386C141.385 17.7386 142.172 17.9318 142.842 18.3182C143.518 18.7045 144.041 19.2642 144.411 19.9972C144.786 20.7301 144.97 21.6193 144.964 22.6648V31H141.879V23.142C141.879 22.267 141.652 21.5824 141.197 21.0881C140.749 20.5937 140.126 20.3466 139.331 20.3466C138.791 20.3466 138.311 20.4659 137.891 20.7045C137.476 20.9375 137.149 21.2756 136.911 21.7188C136.678 22.1619 136.561 22.6989 136.561 23.3295ZM154.638 17.9091V20.2955H147.112V17.9091H154.638ZM148.97 14.7727H152.055V27.0625C152.055 27.4773 152.118 27.7955 152.243 28.017C152.374 28.233 152.544 28.3807 152.754 28.4602C152.964 28.5398 153.197 28.5795 153.453 28.5795C153.646 28.5795 153.822 28.5653 153.982 28.5369C154.146 28.5085 154.271 28.483 154.357 28.4602L154.876 30.8722C154.712 30.929 154.476 30.9915 154.169 31.0597C153.868 31.1278 153.499 31.1676 153.061 31.179C152.288 31.2017 151.592 31.0852 150.973 30.8295C150.354 30.5682 149.862 30.1648 149.499 29.6193C149.141 29.0739 148.964 28.392 148.97 27.5739V14.7727ZM160.985 31.2642C160.156 31.2642 159.408 31.1165 158.744 30.821C158.085 30.5199 157.562 30.0767 157.175 29.4915C156.795 28.9062 156.604 28.1847 156.604 27.3267C156.604 26.5881 156.741 25.9773 157.013 25.4943C157.286 25.0114 157.658 24.625 158.13 24.3352C158.602 24.0455 159.133 23.8267 159.724 23.679C160.32 23.5256 160.937 23.4148 161.573 23.3466C162.34 23.267 162.962 23.196 163.44 23.1335C163.917 23.0653 164.263 22.9631 164.479 22.8267C164.701 22.6847 164.812 22.4659 164.812 22.1705V22.1193C164.812 21.4773 164.621 20.9801 164.241 20.6278C163.86 20.2756 163.312 20.0994 162.596 20.0994C161.84 20.0994 161.241 20.2642 160.798 20.5938C160.36 20.9233 160.065 21.3125 159.911 21.7614L157.031 21.3523C157.258 20.5568 157.633 19.892 158.156 19.358C158.678 18.8182 159.317 18.4148 160.073 18.1477C160.829 17.875 161.664 17.7386 162.579 17.7386C163.21 17.7386 163.837 17.8125 164.462 17.9602C165.087 18.108 165.658 18.3523 166.175 18.6932C166.692 19.0284 167.107 19.4858 167.42 20.0653C167.738 20.6449 167.897 21.3693 167.897 22.2386V31H164.931V29.2017H164.829C164.641 29.5653 164.377 29.9062 164.036 30.2244C163.701 30.5369 163.278 30.7898 162.766 30.983C162.261 31.1705 161.667 31.2642 160.985 31.2642ZM161.786 28.9972C162.406 28.9972 162.942 28.875 163.397 28.6307C163.852 28.3807 164.201 28.0511 164.445 27.642C164.695 27.233 164.82 26.7869 164.82 26.304V24.7614C164.724 24.8409 164.559 24.9148 164.326 24.983C164.099 25.0511 163.843 25.1108 163.559 25.1619C163.275 25.2131 162.994 25.2585 162.715 25.2983C162.437 25.3381 162.195 25.3722 161.991 25.4006C161.531 25.4631 161.119 25.5653 160.755 25.7074C160.391 25.8494 160.104 26.0483 159.894 26.304C159.684 26.554 159.579 26.8778 159.579 27.2756C159.579 27.8438 159.786 28.2727 160.201 28.5625C160.616 28.8523 161.144 28.9972 161.786 28.9972ZM176.71 31.2557C175.403 31.2557 174.281 30.9688 173.343 30.3949C172.411 29.821 171.692 29.0284 171.187 28.017C170.687 27 170.437 25.8295 170.437 24.5057C170.437 23.1761 170.692 22.0028 171.204 20.9858C171.715 19.9631 172.437 19.1676 173.369 18.5994C174.306 18.0256 175.414 17.7386 176.692 17.7386C177.755 17.7386 178.695 17.9347 179.513 18.3267C180.337 18.7131 180.994 19.2614 181.482 19.9716C181.971 20.6761 182.249 21.5 182.317 22.4432H179.369C179.249 21.8125 178.965 21.2869 178.516 20.8665C178.073 20.4403 177.479 20.2273 176.735 20.2273C176.104 20.2273 175.55 20.3977 175.073 20.7386C174.596 21.0739 174.224 21.5568 173.957 22.1875C173.695 22.8182 173.565 23.5739 173.565 24.4545C173.565 25.3466 173.695 26.1136 173.957 26.7557C174.218 27.392 174.585 27.8835 175.056 28.2301C175.533 28.571 176.093 28.7415 176.735 28.7415C177.19 28.7415 177.596 28.6562 177.954 28.4858C178.317 28.3097 178.621 28.0568 178.866 27.7273C179.11 27.3977 179.278 26.9972 179.369 26.5256H182.317C182.244 27.4517 181.971 28.2727 181.499 28.9886C181.028 29.6989 180.386 30.2557 179.573 30.6591C178.761 31.0568 177.806 31.2557 176.71 31.2557ZM191.388 17.9091V20.2955H183.862V17.9091H191.388ZM185.72 14.7727H188.805V27.0625C188.805 27.4773 188.868 27.7955 188.993 28.017C189.124 28.233 189.294 28.3807 189.504 28.4602C189.714 28.5398 189.947 28.5795 190.203 28.5795C190.396 28.5795 190.572 28.5653 190.732 28.5369C190.896 28.5085 191.021 28.483 191.107 28.4602L191.626 30.8722C191.462 30.929 191.226 30.9915 190.919 31.0597C190.618 31.1278 190.249 31.1676 189.811 31.179C189.038 31.2017 188.342 31.0852 187.723 30.8295C187.104 30.5682 186.612 30.1648 186.249 29.6193C185.891 29.0739 185.714 28.392 185.72 27.5739V14.7727Z" fill="black"/>
<defs>
<linearGradient id="paint0_linear_0_189" x1="22.5" y1="0" x2="22.5" y2="45" gradientUnits="userSpaceOnUse">
<stop stop-color="#B09FFF"/>
<stop offset="1" stop-color="#EEC5FC"/>
</linearGradient>
</defs>
</svg>
