<svg width="50" height="50" viewBox="0 0 50 50" fill="none" xmlns="http://www.w3.org/2000/svg">
<path d="M40.8958 7.60416C40.6538 7.40838 40.371 7.26932 40.0681 7.19721C39.7653 7.12511 39.4501 7.12179 39.1458 7.1875C36.9197 7.65405 34.6215 7.65999 32.393 7.20496C30.1644 6.74994 28.0526 5.84357 26.1875 4.54166C25.8388 4.29973 25.4244 4.17009 25 4.17009C24.5756 4.17009 24.1612 4.29973 23.8125 4.54166C21.9474 5.84357 19.8356 6.74994 17.607 7.20496C15.3784 7.65999 13.0803 7.65405 10.8542 7.1875C10.5499 7.12179 10.2347 7.12511 9.93187 7.19721C9.62903 7.26932 9.34619 7.40838 9.10416 7.60416C8.86245 7.80024 8.66774 8.04799 8.53435 8.3292C8.40096 8.6104 8.33227 8.91792 8.33333 9.22916V24.75C8.33147 27.737 9.04327 30.6812 10.4094 33.3374C11.7756 35.9937 13.7566 38.2851 16.1875 40.0208L23.7917 45.4375C24.1445 45.6887 24.5669 45.8237 25 45.8237C25.4331 45.8237 25.8555 45.6887 26.2083 45.4375L33.8125 40.0208C36.2434 38.2851 38.2244 35.9937 39.5905 33.3374C40.9567 30.6812 41.6685 27.737 41.6667 24.75V9.22916C41.6677 8.91792 41.599 8.6104 41.4656 8.3292C41.3322 8.04799 41.1375 7.80024 40.8958 7.60416ZM37.5 24.75C37.5016 27.0724 36.9485 29.3616 35.8868 31.4271C34.825 33.4926 33.2853 35.2747 31.3958 36.625L25 41.1875L18.6042 36.625C16.7147 35.2747 15.175 33.4926 14.1132 31.4271C13.0515 29.3616 12.4984 27.0724 12.5 24.75V11.625C16.8676 11.9988 21.2417 10.9855 25 8.72916C28.7582 10.9855 33.1324 11.9988 37.5 11.625V24.75Z" fill="#AC9CFF"/>
</svg>
