<svg width="50" height="50" viewBox="0 0 50 50" fill="none" xmlns="http://www.w3.org/2000/svg">
<path d="M47.0852 4.29583C46.9912 3.939 46.8042 3.6135 46.5433 3.35258C46.2824 3.09165 45.9569 2.90464 45.6001 2.81064C41.3264 1.70062 36.826 1.82017 32.6173 3.15554C28.4086 4.49091 24.6626 6.98779 21.8106 10.3587L19.4878 13.1167L14.0612 11.8073C12.7419 11.3474 11.3007 11.3804 10.0038 11.9001C8.70694 12.4199 7.64194 13.3914 7.00549 14.6352L2.42176 22.76C2.26115 23.0446 2.16975 23.363 2.15494 23.6894C2.14013 24.0159 2.20233 24.3412 2.33651 24.6392C2.47069 24.9371 2.67309 25.1993 2.92735 25.4046C3.1816 25.6099 3.48059 25.7525 3.80014 25.8208L10.2017 27.1931C9.65942 28.8438 9.27221 30.5415 9.0451 32.2641C9.00392 32.5806 9.03598 32.9023 9.1388 33.2044C9.24162 33.5065 9.41246 33.781 9.63814 34.0067L16.0967 40.4652C16.29 40.6587 16.5197 40.8122 16.7724 40.917C17.0251 41.0217 17.296 41.0756 17.5696 41.0756C17.6296 41.0756 17.6896 41.0726 17.7507 41.0675C19.5118 40.9092 21.2515 40.567 22.9415 40.0466L24.2825 46.3033C24.351 46.6227 24.4936 46.9216 24.699 47.1758C24.9043 47.4299 25.1665 47.6323 25.4644 47.7664C25.7623 47.9006 26.0876 47.9628 26.414 47.9481C26.7404 47.9333 27.0587 47.8421 27.3434 47.6816L35.4793 43.0928C36.6244 42.397 37.5189 41.3555 38.0338 40.1185C38.5486 38.8814 38.6572 37.5128 38.3439 36.2101L36.9508 30.4622L39.528 28.0924C42.9115 25.2484 45.418 21.5021 46.7558 17.2895C48.0937 13.0768 48.2079 8.57087 47.0852 4.29583ZM7.44191 22.3399L10.6839 16.5904C10.8853 16.2 11.2283 15.9015 11.6427 15.7561C12.0572 15.6106 12.5115 15.6292 12.9127 15.8081L16.4906 16.6752L15.1364 18.2831C13.8526 19.8218 12.7422 21.4972 11.8254 23.2792L7.44191 22.3399ZM33.4215 39.4694L27.7636 42.6604L26.8688 38.4841C28.6826 37.5795 30.3724 36.4453 31.8967 35.1094L33.4457 33.6851L34.2862 37.153C34.3952 37.5812 34.3708 38.0325 34.2163 38.4465C34.0617 38.8605 33.7845 39.2174 33.4215 39.4694ZM36.7846 24.9583L29.1084 32.013C26.0699 34.6406 22.3222 36.3108 18.3367 36.8134L13.3277 31.8044C14.0005 27.8086 15.7271 24.0645 18.3296 20.9586L21.8261 16.8072C21.8844 16.7462 21.9387 16.6817 21.9889 16.6139L24.9783 13.0646C27.1887 10.4539 30.0523 8.47667 33.2767 7.33467C36.5011 6.19266 39.9708 5.92683 43.3316 6.56433C43.9845 9.93562 43.7215 13.4203 42.57 16.6554C41.4185 19.8905 39.4207 22.7577 36.7846 24.9583ZM34.8616 12.1172C34.2436 12.1172 33.6394 12.3004 33.1255 12.6438C32.6116 12.9872 32.211 13.4753 31.9745 14.0463C31.738 14.6173 31.6761 15.2456 31.7967 15.8518C31.9173 16.458 32.2149 17.0148 32.6519 17.4519C33.089 17.8889 33.6458 18.1865 34.252 18.3071C34.8582 18.4277 35.4865 18.3658 36.0575 18.1293C36.6285 17.8928 37.1166 17.4922 37.46 16.9783C37.8034 16.4644 37.9866 15.8602 37.9866 15.2422C37.9867 14.8318 37.9059 14.4254 37.7488 14.0462C37.5918 13.6671 37.3616 13.3225 37.0714 13.0323C36.7812 12.7422 36.4367 12.512 36.0575 12.3549C35.6783 12.1979 35.272 12.1171 34.8616 12.1171L34.8616 12.1172Z" fill="#AC9CFF"/>
</svg>
