<svg width="50" height="50" viewBox="0 0 50 50" fill="none" xmlns="http://www.w3.org/2000/svg">
<path d="M32.7297 26.4792C34.7722 24.8722 36.263 22.6686 36.9948 20.1749C37.7265 17.6812 37.6629 15.0214 36.8126 12.5656C35.9623 10.1097 34.3677 7.97998 32.2507 6.47261C30.1336 4.96524 27.5994 4.15521 25.0005 4.15521C22.4017 4.15521 19.8674 4.96524 17.7504 6.47261C15.6333 7.97998 14.0387 10.1097 13.1885 12.5656C12.3382 15.0214 12.2745 17.6812 13.0063 20.1749C13.738 22.6686 15.2289 24.8722 17.2714 26.4792C13.7715 27.8813 10.7178 30.207 8.43572 33.2082C6.15365 36.2093 4.72878 39.7735 4.31303 43.5208C4.28293 43.7944 4.30702 44.0713 4.38391 44.3355C4.46081 44.5998 4.589 44.8464 4.76117 45.0611C5.1089 45.4948 5.61466 45.7725 6.16719 45.8333C6.71973 45.8941 7.27377 45.7329 7.70745 45.3852C8.14113 45.0375 8.41891 44.5317 8.47969 43.9792C8.93716 39.9066 10.879 36.1454 13.9343 33.4141C16.9896 30.6829 20.9441 29.173 25.0422 29.173C29.1403 29.173 33.0948 30.6829 36.1501 33.4141C39.2053 36.1454 41.1472 39.9066 41.6047 43.9792C41.6613 44.4911 41.9056 44.9639 42.2903 45.3063C42.6751 45.6487 43.173 45.8364 43.688 45.8333H43.9172C44.4633 45.7705 44.9625 45.4944 45.3059 45.0651C45.6493 44.6358 45.8091 44.0882 45.7505 43.5417C45.3328 39.7838 43.9003 36.2104 41.6065 33.2046C39.3127 30.1988 36.2441 27.8739 32.7297 26.4792ZM25.0005 25C23.3523 25 21.7412 24.5113 20.3708 23.5956C19.0004 22.6799 17.9323 21.3784 17.3015 19.8557C16.6708 18.333 16.5058 16.6574 16.8273 15.0409C17.1489 13.4244 17.9425 11.9395 19.108 10.7741C20.2734 9.60867 21.7583 8.81499 23.3748 8.49345C24.9913 8.17191 26.6668 8.33694 28.1896 8.96767C29.7123 9.5984 31.0138 10.6665 31.9294 12.0369C32.8451 13.4073 33.3339 15.0185 33.3339 16.6667C33.3339 18.8768 32.4559 20.9964 30.8931 22.5592C29.3303 24.122 27.2107 25 25.0005 25Z" fill="#AC9CFF"/>
</svg>
