<svg width="159" height="73" viewBox="0 0 159 73" fill="none" xmlns="http://www.w3.org/2000/svg">
<mask id="mask0_57_36" style="mask-type:alpha" maskUnits="userSpaceOnUse" x="0" y="0" width="159" height="73">
<rect width="159" height="73" fill="#D9D9D9"/>
</mask>
<g mask="url(#mask0_57_36)">
<path fill-rule="evenodd" clip-rule="evenodd" d="M28.8759 24.4003C28.3994 23.9072 27.817 23.5294 27.173 23.2957L26.1713 43.6795L31.1799 29.6217C31.6808 27.5131 30.4787 25.7056 28.8759 24.4003ZM20.5617 23.1953L23.5669 43.4787L26.4718 23.1953C24.5649 22.488 22.4686 22.488 20.5617 23.1953ZM18.1575 24.4003C16.5548 25.7056 15.3527 27.5131 15.8535 29.6217L20.8621 43.6795L19.8604 23.2957C19.2057 23.5072 18.6183 23.8882 18.1575 24.4003ZM7.93997 26.3081C11.3458 32.132 14.7517 38.5584 18.0574 44.282C16.9555 39.2613 15.7534 31.0275 13.9503 28.718C12.1472 26.4085 7.93997 26.3081 7.93997 26.3081ZM1.92964 29.2201L15.7534 45.2861L7.23875 26.4085C6.19679 26.4318 5.17455 26.6979 4.25303 27.186C3.33151 27.674 2.53604 28.3704 1.92964 29.2201ZM30.7792 33.5378L28.5755 44.5832C31.4805 39.4622 34.4856 34.4415 37.2904 29.2201C34.4856 29.5213 31.7809 30.5254 30.7792 33.5378ZM38.0918 29.2201L30.7792 45.5873L43.6013 31.5296C42.1362 30.068 40.1587 29.2391 38.0918 29.2201ZM0.126549 36.5502L13.6498 46.9931L1.52892 29.8225C0.435858 31.8869 -0.0504069 34.2198 0.126549 36.5502ZM45.204 33.5378C44.9255 33.0057 44.552 32.5292 44.1022 32.132L33.0832 47.1939C37.3906 43.9807 41.698 40.6671 45.9052 37.2531C46.0306 35.9729 45.7873 34.6836 45.204 33.5378ZM0.226697 43.5791L11.9469 48.901L0.226697 37.4539V43.5791ZM45.9052 43.8803V38.3576L34.7861 49.2022C38.5926 47.4952 42.0986 45.6877 45.9052 43.8803ZM0.126549 48.901L10.7448 51.4113L0.126549 44.282V48.901ZM45.9052 49.2022V44.9849C42.5995 47.0935 39.0936 49.3026 36.0884 51.4113L45.9052 49.2022ZM0.126549 54.2228H10.5444L0.126549 49.8047V54.2228ZM45.9052 54.2228V50.1059L36.3888 54.2228H45.9052Z" fill="black" fill-opacity="0.7"/>
<path fill-rule="evenodd" clip-rule="evenodd" d="M42.3004 23.7978C42.5007 17.6726 33.2849 17.5722 33.4852 23.7978C33.6856 30.0234 42.6009 29.8225 42.3004 23.7978ZM12.7499 20.5846C13.0504 14.359 3.43393 14.6602 3.73444 20.5846C4.03495 26.5089 13.3509 27.011 12.7499 20.5846ZM23.5684 21.8899C27.1746 21.8899 28.5769 19.2792 28.6771 16.7689C28.7773 14.2586 26.3732 11.447 23.5684 11.447C20.7636 11.447 18.4596 13.0536 18.4596 16.7689C18.5597 18.8776 19.4614 21.7895 23.5684 21.8899ZM75.6574 36.2489H77.6609V24.7015H75.6574V36.2489ZM71.8509 32.9353L72.9527 36.2489H75.0563L71.0495 24.7015H68.5452L65.2396 34.5419L61.9339 30.3246L66.3415 24.7015H63.9373L59.9305 30.2242V24.7015H57.9271V36.2489H59.9305V30.6258L64.1377 36.2489H66.4416L67.6437 32.9353H71.8509ZM69.6472 26.5089L71.35 31.3287H68.1446L69.6472 26.5089ZM90.1823 51.0096L88.1788 42.5749H84.5726V54.2228H86.576V44.282L89.0803 54.2228H91.184L93.6883 44.282V54.2228H95.5914V42.5749H92.1857L90.1823 51.0096ZM100.6 42.5749L96.5931 54.2228H98.5965L99.6985 50.8088H103.906L105.008 54.2228H107.111L103.104 42.5749H100.6ZM100.199 49.3026L101.702 44.3824L103.405 49.3026H100.199ZM115.225 51.5117L110.617 42.5749H108.013V54.2228H109.916V45.4869L114.524 54.2228H117.128V42.5749H115.225V51.5117ZM153.19 52.5158H148.482V49.3026H151.888V47.4952H148.482V44.282H152.789V42.5749H146.478V54.2228H153.19V52.5158ZM134.959 42.5749H134.558V51.6121L129.95 42.5749H127.346V52.5158H121.235V49.3026H124.741V47.4952H121.235V44.282H125.543V42.5749H119.232V54.2228H129.249V45.3865L133.757 54.2228H136.461V44.282H140.067V54.2228H142.071V44.282H145.477V42.5749H134.959ZM81.7679 48.3989C82.1147 48.0796 82.3916 47.6916 82.5813 47.2595C82.7709 46.8274 82.8692 46.3606 82.8697 45.8886C82.8676 45.4314 82.7682 44.98 82.5782 44.5644C82.3882 44.1488 82.112 43.7787 81.7679 43.4787C80.7792 42.7739 79.569 42.4528 78.362 42.5749H75.0563V52.5158H68.9459V49.3026H72.4519V47.4952H68.9459V44.282H73.2533V42.5749H66.9425V54.2228H77.0597V49.3026H77.9613C78.963 50.7084 80.9664 54.2228 80.9664 54.2228H83.2704L80.1651 49.1018C80.7587 49.0381 81.3184 48.7927 81.7679 48.3989ZM77.0597 47.5956V44.282H78.6626C80.2653 44.282 80.8663 44.9849 80.8663 45.8886C80.8663 46.7923 80.2653 47.5956 78.6626 47.5956H77.0597ZM97.8954 31.4291H98.8971C99.7987 32.7345 101.702 36.2489 101.702 36.2489H104.106L101.001 31.2283C101.575 31.1297 102.102 30.848 102.503 30.425C102.847 30.125 103.124 29.7549 103.314 29.3393C103.504 28.9237 103.603 28.4723 103.605 28.0151C103.633 27.5536 103.547 27.0922 103.355 26.6718C103.163 26.2514 102.87 25.8851 102.503 25.6052C101.554 24.8985 100.374 24.5758 99.1977 24.7015H95.892V34.6423H89.6814V31.3287H93.2875V29.6217H89.6814V26.4085H94.0888V24.7015H87.7781V36.2489H97.8954V31.4291ZM97.8954 29.6217V26.4085H99.5983C101.101 26.4085 101.702 27.011 101.702 28.0151C101.702 29.0192 101.101 29.6217 99.5983 29.6217H97.8954ZM64.5383 43.4787C63.6288 42.7689 62.4782 42.4444 61.3329 42.5749H57.9271V54.2228H59.9305V49.5034H61.3329C62.4782 49.6339 63.6288 49.3095 64.5383 48.5997C64.9161 48.2784 65.2193 47.8783 65.4269 47.4274C65.6345 46.9765 65.7416 46.4856 65.7405 45.989C65.7564 45.5045 65.6554 45.0233 65.4461 44.5862C65.2369 44.1492 64.9254 43.7693 64.5383 43.4787ZM61.5332 47.696H59.9305V44.3824H61.5332C63.1359 44.3824 63.737 44.9849 63.737 45.989C63.737 46.9931 63.0358 47.696 61.5332 47.696ZM86.4759 32.9353C86.4759 31.3287 85.4741 30.2242 83.4707 29.5213C81.4673 28.8184 81.1669 28.5172 81.1669 27.6135C81.1669 26.7097 81.868 26.1073 83.2704 26.1073C84.1116 26.0843 84.9431 26.2926 85.6746 26.7097V25.1031C84.9431 24.686 84.1116 24.4777 83.2704 24.5007C80.7661 24.5007 79.1634 25.9064 79.1634 27.7139C79.1634 29.5213 80.4656 30.425 82.3689 31.1279C84.2721 31.8308 84.4724 32.132 84.4724 33.1362C84.4724 34.1403 83.6711 34.7428 82.2687 34.7428C81.1795 34.767 80.1049 34.489 79.1634 33.9395V35.7469C80.1039 36.1928 81.1284 36.4324 82.1686 36.4498C85.0735 36.4498 86.4759 34.7428 86.4759 32.9353ZM154.592 51.8129C154.592 51.4157 154.71 51.0274 154.93 50.6972C155.15 50.3669 155.463 50.1095 155.829 49.9575C156.195 49.8055 156.598 49.7658 156.987 49.8432C157.375 49.9207 157.732 50.112 158.012 50.3929C158.292 50.6737 158.483 51.0316 158.561 51.4211C158.638 51.8107 158.598 52.2145 158.447 52.5814C158.295 52.9484 158.038 53.262 157.709 53.4827C157.379 53.7034 156.992 53.8212 156.596 53.8212C156.333 53.8212 156.072 53.7692 155.829 53.6683C155.586 53.5674 155.365 53.4194 155.179 53.233C154.993 53.0465 154.845 52.8251 154.745 52.5814C154.644 52.3378 154.592 52.0766 154.592 51.8129ZM156.596 54.2228C157.071 54.2228 157.536 54.0815 157.931 53.8167C158.327 53.5519 158.635 53.1755 158.817 52.7351C158.999 52.2948 159.046 51.8102 158.954 51.3428C158.861 50.8753 158.632 50.4459 158.296 50.1089C157.959 49.7718 157.531 49.5423 157.065 49.4493C156.598 49.3563 156.115 49.4041 155.676 49.5865C155.236 49.7689 154.861 50.0777 154.597 50.474C154.333 50.8703 154.192 51.3363 154.192 51.8129C154.192 52.4521 154.445 53.065 154.896 53.517C155.347 53.9689 155.958 54.2228 156.596 54.2228ZM156.095 52.0137H156.596L157.297 53.2187H157.798L156.896 52.0137C157.397 51.9133 157.698 51.7125 157.698 51.2104C157.698 50.7084 157.397 50.4071 156.696 50.4071H155.594V53.2187H156.095V52.0137ZM156.095 51.6121V50.7084H156.696C156.896 50.7084 157.297 50.8088 157.297 51.2104C157.297 51.6121 156.896 51.6121 156.596 51.6121H156.095Z" fill="black" fill-opacity="0.7"/>
</g>
</svg>
