<svg width="87" height="73" viewBox="0 0 87 73" fill="none" xmlns="http://www.w3.org/2000/svg">
<mask id="mask0_57_34" style="mask-type:alpha" maskUnits="userSpaceOnUse" x="0" y="0" width="87" height="73">
<rect width="87" height="73" fill="#D9D9D9"/>
</mask>
<g mask="url(#mask0_57_34)">
<path d="M40.454 4.01654C40.5337 4.01654 40.6101 3.9848 40.6665 3.92831C40.7229 3.87182 40.7545 3.79519 40.7545 3.7153C40.7545 3.63541 40.7229 3.55879 40.6665 3.50229C40.6101 3.4458 40.5337 3.41406 40.454 3.41406C40.3743 3.41406 40.2979 3.4458 40.2415 3.50229C40.1852 3.55879 40.1535 3.63541 40.1535 3.7153C40.1535 3.75486 40.1613 3.79403 40.1764 3.83058C40.1915 3.86713 40.2136 3.90034 40.2415 3.92831C40.2694 3.95628 40.3026 3.97847 40.339 3.99361C40.3755 4.00875 40.4146 4.01654 40.454 4.01654Z" fill="black" fill-opacity="0.7"/>
<path d="M42.4555 8.53516C42.5436 8.5124 42.6213 8.46021 42.6759 8.38721C42.7305 8.3142 42.7588 8.22473 42.7559 8.13351C42.7559 8.05362 42.7242 7.977 42.6679 7.92051C42.6115 7.86401 42.5351 7.83228 42.4555 7.83228C42.1551 7.83228 42.0549 7.93269 42.0549 8.13351C42.0549 8.24004 42.0971 8.3422 42.1722 8.41752C42.2474 8.49285 42.3492 8.53516 42.4555 8.53516Z" fill="black" fill-opacity="0.7"/>
<path d="M47.6679 15.062C47.4676 15.062 47.3674 15.2628 47.3674 15.4637C47.3674 15.6645 47.4676 15.8653 47.6679 15.8653C47.7742 15.8653 47.8761 15.823 47.9512 15.7477C48.0264 15.6723 48.0686 15.5702 48.0686 15.4637C48.0686 15.3571 48.0264 15.255 47.9512 15.1797C47.8761 15.1043 47.7742 15.062 47.6679 15.062Z" fill="black" fill-opacity="0.7"/>
<path d="M39.25 10.945C39.3297 10.945 39.4061 10.9133 39.4625 10.8568C39.5188 10.8003 39.5505 10.7237 39.5505 10.6438C39.5505 10.6042 39.5427 10.565 39.5276 10.5285C39.5125 10.4919 39.4904 10.4587 39.4625 10.4308C39.4345 10.4028 39.4015 10.3806 39.365 10.3655C39.3285 10.3503 39.2894 10.3425 39.25 10.3425L38.9494 10.6438C38.9494 10.7237 38.9811 10.8003 39.0374 10.8568C39.0938 10.9133 39.1703 10.945 39.25 10.945Z" fill="black" fill-opacity="0.7"/>
<path d="M42.4574 12.0496C42.3777 12.0496 42.3012 12.0813 42.2449 12.1378C42.1885 12.1943 42.1568 12.2709 42.1568 12.3508C42.1568 12.4307 42.1885 12.5073 42.2449 12.5638C42.3012 12.6203 42.3777 12.652 42.4574 12.652C42.5371 12.652 42.6135 12.6203 42.6699 12.5638C42.7262 12.5073 42.7579 12.4307 42.7579 12.3508C42.7579 12.2709 42.7262 12.1943 42.6699 12.1378C42.6135 12.0813 42.5371 12.0496 42.4574 12.0496Z" fill="black" fill-opacity="0.7"/>
<path d="M38.2485 8.03321C38.3548 8.03321 38.4567 7.99089 38.5318 7.91557C38.607 7.84025 38.6491 7.73808 38.6491 7.63156C38.6491 7.43073 38.4488 7.33032 38.2485 7.33032C38.0482 7.33032 37.8478 7.43073 37.8478 7.63156C37.8478 7.83239 38.0482 8.03321 38.2485 8.03321Z" fill="black" fill-opacity="0.7"/>
<path d="M33.5419 10.8446C33.6216 10.8446 33.698 10.8129 33.7544 10.7564C33.8107 10.6999 33.8423 10.6232 33.8423 10.5434C33.8423 10.4429 33.7422 10.3425 33.5419 10.3425C33.3416 10.3425 33.2414 10.4429 33.2414 10.5434C33.2414 10.6232 33.273 10.6999 33.3294 10.7564C33.3857 10.8129 33.4622 10.8446 33.5419 10.8446Z" fill="black" fill-opacity="0.7"/>
<path d="M34.4454 11.4472C34.5251 11.4472 34.6015 11.4155 34.6579 11.359C34.7143 11.3025 34.7459 11.2259 34.7459 11.146L34.4454 10.8447C34.3657 10.8447 34.2893 10.8765 34.2329 10.933C34.1766 10.9894 34.1449 11.0661 34.1449 11.146C34.1449 11.2259 34.1766 11.3025 34.2329 11.359C34.2893 11.4155 34.3657 11.4472 34.4454 11.4472Z" fill="black" fill-opacity="0.7"/>
<path d="M35.245 12.0497C35.3247 12.0497 35.4011 12.018 35.4575 11.9615C35.5138 11.905 35.5455 11.8284 35.5455 11.7485C35.5455 11.6686 35.5138 11.592 35.4575 11.5355C35.4011 11.479 35.3247 11.4473 35.245 11.4473C35.1653 11.4473 35.0889 11.479 35.0325 11.5355C34.9762 11.592 34.9445 11.6686 34.9445 11.7485C34.9445 11.8284 34.9762 11.905 35.0325 11.9615C35.0889 12.018 35.1653 12.0497 35.245 12.0497Z" fill="black" fill-opacity="0.7"/>
<path d="M33.6408 12.8529C33.6408 12.9328 33.6725 13.0094 33.7289 13.0659C33.7852 13.1224 33.8617 13.1542 33.9414 13.1542C34.0211 13.1542 34.0975 13.1224 34.1539 13.0659C34.2102 13.0094 34.2419 12.9328 34.2419 12.8529C34.2419 12.7525 34.1418 12.6521 33.9414 12.6521C33.7411 12.6521 33.6408 12.7525 33.6408 12.8529Z" fill="black" fill-opacity="0.7"/>
<path d="M27.1329 17.3716C27.0532 17.3716 26.9768 17.4033 26.9205 17.4598C26.8641 17.5163 26.8324 17.5929 26.8324 17.6728C26.8324 17.7527 26.8641 17.8293 26.9205 17.8858C26.9768 17.9423 27.0532 17.9741 27.1329 17.9741C27.2126 17.9741 27.2891 17.9423 27.3454 17.8858C27.4018 17.8293 27.4334 17.7527 27.4334 17.6728C27.4334 17.5929 27.4018 17.5163 27.3454 17.4598C27.2891 17.4033 27.2126 17.3716 27.1329 17.3716Z" fill="black" fill-opacity="0.7"/>
<path d="M28.4333 18.978C28.233 18.978 28.1328 19.0784 28.1328 19.1789C28.1328 19.2184 28.1406 19.2576 28.1557 19.2941C28.1708 19.3307 28.1929 19.3639 28.2208 19.3919C28.2487 19.4198 28.2819 19.442 28.3183 19.4572C28.3548 19.4723 28.3939 19.4801 28.4333 19.4801C28.5131 19.4801 28.5895 19.4484 28.6458 19.3919C28.7022 19.3354 28.7339 19.2587 28.7339 19.1789C28.7339 19.0784 28.5335 18.978 28.4333 18.978Z" fill="black" fill-opacity="0.7"/>
<path d="M27.4335 44.3825C27.5995 44.3825 27.734 44.2476 27.734 44.0813C27.734 43.9149 27.5995 43.78 27.4335 43.78C27.2675 43.78 27.1329 43.9149 27.1329 44.0813C27.1329 44.2476 27.2675 44.3825 27.4335 44.3825Z" fill="black" fill-opacity="0.7"/>
<path d="M27.5336 50.5076C27.4544 50.5076 27.3769 50.5311 27.311 50.5753C27.2451 50.6194 27.1937 50.6821 27.1634 50.7555C27.1331 50.8289 27.1251 50.9097 27.1406 50.9876C27.1561 51.0655 27.1943 51.1371 27.2503 51.1932C27.3063 51.2494 27.3777 51.2877 27.4554 51.3032C27.5332 51.3187 27.6138 51.3107 27.687 51.2803C27.7602 51.2499 27.8228 51.1984 27.8668 51.1324C27.9108 51.0663 27.9344 50.9887 27.9344 50.9092C27.9344 50.8027 27.8921 50.7005 27.817 50.6252C27.7418 50.5499 27.6399 50.5076 27.5336 50.5076Z" fill="black" fill-opacity="0.7"/>
<path d="M23.7265 54.1226C23.6468 54.1226 23.5704 54.1543 23.514 54.2108C23.4577 54.2673 23.4261 54.3439 23.4261 54.4238C23.4261 54.5037 23.4577 54.5803 23.514 54.6368C23.5704 54.6933 23.6468 54.725 23.7265 54.725C23.8062 54.725 23.8826 54.6933 23.939 54.6368C23.9953 54.5803 24.027 54.5037 24.027 54.4238C24.027 54.3439 23.9953 54.2673 23.939 54.2108C23.8826 54.1543 23.8062 54.1226 23.7265 54.1226Z" fill="black" fill-opacity="0.7"/>
<path d="M19.0169 55.428C18.9376 55.428 18.8602 55.4515 18.7943 55.4957C18.7284 55.5398 18.677 55.6025 18.6467 55.6759C18.6164 55.7493 18.6084 55.8301 18.6239 55.908C18.6393 55.9859 18.6775 56.0575 18.7336 56.1136C18.7896 56.1698 18.861 56.2081 18.9387 56.2236C19.0164 56.2391 19.097 56.2311 19.1702 56.2007C19.2434 56.1703 19.306 56.1188 19.35 56.0528C19.394 55.9867 19.4176 55.9091 19.4176 55.8296C19.3174 55.6288 19.2172 55.428 19.0169 55.428Z" fill="black" fill-opacity="0.7"/>
<path d="M18.0155 52.3152C17.9358 52.3152 17.8594 52.3469 17.803 52.4034C17.7466 52.4599 17.715 52.5365 17.715 52.6164C17.715 52.8173 17.8152 53.0181 18.0155 53.0181C18.1218 53.0181 18.2237 52.9758 18.2989 52.9004C18.374 52.8251 18.4163 52.723 18.4163 52.6164C18.4163 52.4156 18.2159 52.3152 18.0155 52.3152Z" fill="black" fill-opacity="0.7"/>
<path d="M17.6132 54.4238C17.4129 54.4238 17.3128 54.5242 17.3128 54.6247C17.3128 54.7045 17.3444 54.7812 17.4008 54.8377C17.4571 54.8942 17.5335 54.9259 17.6132 54.9259C17.6929 54.9259 17.7693 54.8942 17.8256 54.8377C17.882 54.7812 17.9137 54.7045 17.9137 54.6247C17.9137 54.5242 17.7133 54.4238 17.6132 54.4238Z" fill="black" fill-opacity="0.7"/>
<path d="M14.1087 52.7168C14.029 52.7168 13.9526 52.7485 13.8962 52.805C13.8399 52.8615 13.8082 52.9381 13.8082 53.018C13.8082 53.0979 13.8399 53.1745 13.8962 53.231C13.9526 53.2875 14.029 53.3193 14.1087 53.3193C14.1884 53.3193 14.2648 53.2875 14.3212 53.231C14.3775 53.1745 14.4092 53.0979 14.4092 53.018C14.4092 52.9381 14.3775 52.8615 14.3212 52.805C14.2648 52.7485 14.1884 52.7168 14.1087 52.7168Z" fill="black" fill-opacity="0.7"/>
<path d="M26.5296 58.6411C26.5296 58.5612 26.498 58.4846 26.4416 58.4281C26.3853 58.3716 26.3089 58.3398 26.2292 58.3398C26.1495 58.3398 26.0731 58.3716 26.0167 58.4281C25.9604 58.4846 25.9287 58.5612 25.9287 58.6411C25.9287 58.721 25.9604 58.7976 26.0167 58.8541C26.0731 58.9106 26.1495 58.9423 26.2292 58.9423C26.3089 58.9423 26.3853 58.9106 26.4416 58.8541C26.498 58.7976 26.5296 58.721 26.5296 58.6411Z" fill="black" fill-opacity="0.7"/>
<path d="M30.135 55.9299C30.135 55.85 30.1034 55.7734 30.047 55.7169C29.9907 55.6604 29.9142 55.6287 29.8345 55.6287C29.6341 55.6287 29.4338 55.7291 29.4338 55.9299C29.4338 56.0364 29.476 56.1386 29.5511 56.2139C29.6263 56.2892 29.7282 56.3316 29.8345 56.3316C30.0349 56.3316 30.135 56.1307 30.135 55.9299Z" fill="black" fill-opacity="0.7"/>
<path d="M30.3367 59.1431C30.257 59.1431 30.1806 59.1748 30.1242 59.2313C30.0678 59.2878 30.0362 59.3644 30.0362 59.4443C30.0362 59.5242 30.0678 59.6008 30.1242 59.6573C30.1806 59.7138 30.257 59.7455 30.3367 59.7455C30.4057 59.7205 30.4685 59.6805 30.5204 59.6285C30.5723 59.5764 30.6122 59.5135 30.6372 59.4443C30.6372 59.3644 30.6056 59.2878 30.5492 59.2313C30.4928 59.1748 30.4164 59.1431 30.3367 59.1431Z" fill="black" fill-opacity="0.7"/>
<path d="M45.3621 55.8296C45.2824 55.8296 45.206 55.8613 45.1497 55.9178C45.0933 55.9743 45.0616 56.0509 45.0616 56.1308C45.0616 56.2107 45.0933 56.2873 45.1497 56.3438C45.206 56.4003 45.2824 56.4321 45.3621 56.4321C45.4312 56.407 45.4939 56.367 45.5458 56.315C45.5978 56.2629 45.6376 56.2001 45.6626 56.1308C45.6626 56.0509 45.631 55.9743 45.5746 55.9178C45.5183 55.8613 45.4418 55.8296 45.3621 55.8296Z" fill="black" fill-opacity="0.7"/>
<path d="M38.3515 58.3398C38.2718 58.3398 38.1954 58.3716 38.1391 58.4281C38.0827 58.4846 38.0511 58.5612 38.0511 58.6411C38.0511 58.7415 38.1512 58.8419 38.3515 58.8419C38.5518 58.8419 38.6519 58.7415 38.6519 58.6411C38.6519 58.5612 38.6203 58.4846 38.564 58.4281C38.5076 58.3716 38.4312 58.3398 38.3515 58.3398Z" fill="black" fill-opacity="0.7"/>
<path d="M57.1835 61.8542C57.1038 61.8542 57.0274 61.886 56.971 61.9425C56.9146 61.999 56.883 62.0756 56.883 62.1555C56.883 62.2354 56.9146 62.312 56.971 62.3685C57.0274 62.425 57.1038 62.4567 57.1835 62.4567C57.2836 62.4567 57.3838 62.3563 57.3838 62.1555C57.3838 61.9547 57.2836 61.8542 57.1835 61.8542Z" fill="black" fill-opacity="0.7"/>
<path d="M58.5851 48.5999C58.7854 48.5999 58.9858 48.4994 58.9858 48.2986C58.9858 48.1921 58.9436 48.0899 58.8684 48.0146C58.7933 47.9393 58.6914 47.897 58.5851 47.897C58.4788 47.897 58.3769 47.9393 58.3017 48.0146C58.2266 48.0899 58.1844 48.1921 58.1844 48.2986C58.1844 48.4994 58.3847 48.5999 58.5851 48.5999Z" fill="black" fill-opacity="0.7"/>
<path d="M55.7814 50.5078C55.8611 50.5078 55.9375 50.476 55.9939 50.4195C56.0503 50.363 56.0819 50.2864 56.0819 50.2065C56.0819 50.1266 56.0503 50.05 55.9939 49.9935C55.9375 49.937 55.8611 49.9053 55.7814 49.9053C55.7017 49.9053 55.6253 49.937 55.5689 49.9935C55.5125 50.05 55.4809 50.1266 55.4809 50.2065C55.4809 50.2864 55.5125 50.363 55.5689 50.4195C55.6253 50.476 55.7017 50.5078 55.7814 50.5078Z" fill="black" fill-opacity="0.7"/>
<path d="M58.5851 51.2105C58.7854 51.2105 58.8856 51.0097 58.8856 50.8089C58.8856 50.608 58.7854 50.4072 58.5851 50.4072C58.4788 50.4072 58.3769 50.4495 58.3017 50.5249C58.2266 50.6002 58.1844 50.7023 58.1844 50.8089C58.1844 50.9154 58.2266 51.0176 58.3017 51.0929C58.3769 51.1682 58.4788 51.2105 58.5851 51.2105Z" fill="black" fill-opacity="0.7"/>
<path d="M55.7814 54.6247C55.8611 54.6247 55.9375 54.593 55.9939 54.5365C56.0503 54.48 56.0819 54.4033 56.0819 54.3235C56.0819 54.2436 56.0503 54.1669 55.9939 54.1104C55.9375 54.054 55.8611 54.0222 55.7814 54.0222C55.7017 54.0222 55.6253 54.054 55.5689 54.1104C55.5125 54.1669 55.4809 54.2436 55.4809 54.3235C55.4809 54.4033 55.5125 54.48 55.5689 54.5365C55.6253 54.593 55.7017 54.6247 55.7814 54.6247Z" fill="black" fill-opacity="0.7"/>
<path d="M63.3941 46.2903C63.3941 46.2104 63.3625 46.1337 63.3061 46.0772C63.2497 46.0208 63.1733 45.989 63.0936 45.989C63.0245 46.0141 62.9618 46.054 62.9098 46.1061C62.8579 46.1582 62.8181 46.221 62.7931 46.2903C62.7931 46.3701 62.8247 46.4468 62.881 46.5033C62.9374 46.5598 63.0139 46.5915 63.0936 46.5915C63.1733 46.5915 63.2497 46.5598 63.3061 46.5033C63.3625 46.4468 63.3941 46.3701 63.3941 46.2903Z" fill="black" fill-opacity="0.7"/>
<path d="M63.7957 48.3989C63.9961 48.3989 64.1964 48.2985 64.1964 48.0977C64.1964 47.9912 64.1542 47.889 64.079 47.8137C64.0039 47.7384 63.902 47.696 63.7957 47.696C63.6894 47.696 63.5875 47.7384 63.5123 47.8137C63.4372 47.889 63.3949 47.9912 63.3949 48.0977C63.3949 48.2985 63.5953 48.3989 63.7957 48.3989Z" fill="black" fill-opacity="0.7"/>
<path d="M68.801 49.8047C68.7128 49.8275 68.635 49.8796 68.5804 49.9526C68.5258 50.0257 68.4976 50.1151 68.5005 50.2063C68.5005 50.4072 68.6006 50.608 68.801 50.608C68.9073 50.608 69.0092 50.5657 69.0844 50.4904C69.1595 50.415 69.2017 50.3129 69.2017 50.2063C69.2017 50.0998 69.1595 49.9977 69.0844 49.9223C69.0092 49.847 68.9073 49.8047 68.801 49.8047Z" fill="black" fill-opacity="0.7"/>
<path d="M63.7939 53.7209C63.7142 53.7209 63.6378 53.7527 63.5814 53.8092C63.5251 53.8657 63.4934 53.9423 63.4934 54.0222C63.4934 54.1021 63.5251 54.1787 63.5814 54.2352C63.6378 54.2917 63.7142 54.3234 63.7939 54.3234C63.863 54.2984 63.9257 54.2584 63.9777 54.2063C64.0296 54.1543 64.0695 54.0914 64.0945 54.0222C64.0945 53.9423 64.0628 53.8657 64.0064 53.8092C63.9501 53.7527 63.8736 53.7209 63.7939 53.7209Z" fill="black" fill-opacity="0.7"/>
<path d="M66.9989 50.6082C66.9192 50.6082 66.8427 50.6399 66.7864 50.6964C66.73 50.7529 66.6983 50.8295 66.6983 50.9094C66.6983 50.9893 66.73 51.0659 66.7864 51.1224C66.8427 51.1789 66.9192 51.2106 66.9989 51.2106C67.0786 51.2106 67.1551 51.1789 67.2114 51.1224C67.2678 51.0659 67.2995 50.9893 67.2995 50.9094C67.2995 50.8295 67.2678 50.7529 67.2114 50.6964C67.1551 50.6399 67.0786 50.6082 66.9989 50.6082Z" fill="black" fill-opacity="0.7"/>
<path d="M66.3983 55.3274C66.3292 55.3524 66.2665 55.3924 66.2145 55.4445C66.1626 55.4965 66.1227 55.5594 66.0977 55.6286C66.0977 55.7085 66.1294 55.7852 66.1858 55.8416C66.2422 55.8981 66.3186 55.9299 66.3983 55.9299C66.478 55.9299 66.5545 55.8981 66.6108 55.8416C66.6672 55.7852 66.6988 55.7085 66.6988 55.6286C66.6988 55.5487 66.6672 55.4721 66.6108 55.4156C66.5545 55.3591 66.478 55.3274 66.3983 55.3274Z" fill="black" fill-opacity="0.7"/>
<path d="M47.4659 7.93277C47.6663 7.93277 47.8666 7.83235 47.8666 7.63153L48.668 7.4307H47.8666C47.8666 7.22988 47.6663 7.12947 47.4659 7.12947V7.02905C47.2656 7.02905 47.1654 7.12947 47.0652 7.33029H46.3639L47.0652 7.53112C47.0652 7.63764 47.1074 7.7398 47.1826 7.81513C47.2577 7.89045 47.3596 7.93277 47.4659 7.93277Z" fill="black" fill-opacity="0.7"/>
<path d="M27.4326 62.4567C27.2323 62.4567 27.1321 62.5572 27.0319 62.758H26.2306L27.0319 62.9588C27.0546 63.0472 27.1067 63.1252 27.1795 63.1799C27.2523 63.2347 27.3416 63.2629 27.4326 63.2601V63.3605C27.6105 63.28 27.753 63.1371 27.8333 62.9588L28.6346 62.758H27.8333C27.8105 62.6696 27.7585 62.5916 27.6857 62.5369C27.6128 62.4821 27.5236 62.4539 27.4326 62.4567Z" fill="black" fill-opacity="0.7"/>
<path d="M64.6972 55.2271L64.4969 54.5242V55.2271L64.0962 55.6287H63.3949L64.0962 55.8295C64.1964 55.9299 64.2966 56.1308 64.4969 56.1308V56.9341L64.6972 56.1308C64.7663 56.1057 64.829 56.0657 64.881 56.0137C64.9329 55.9616 64.9728 55.8988 64.9978 55.8295L65.7992 55.6287H64.9978C64.9978 55.4279 64.8976 55.3275 64.6972 55.2271Z" fill="black" fill-opacity="0.7"/>
<path d="M68.0011 47.6961C67.9208 47.5178 67.7783 47.3749 67.6004 47.2944C67.4941 47.2944 67.3922 47.3367 67.3171 47.4121C67.2419 47.4874 67.1997 47.5896 67.1997 47.6961C67.1997 47.8969 67.4001 47.9973 67.5003 48.0977L67.7006 48.901V48.0977C67.8785 48.0172 68.021 47.8744 68.1013 47.6961H68.0011Z" fill="black" fill-opacity="0.7"/>
<path d="M30.8391 18.8777C31.017 18.7972 31.1595 18.6544 31.2398 18.4761C31.2398 18.3695 31.1976 18.2674 31.1224 18.1921C31.0473 18.1167 30.9454 18.0744 30.8391 18.0744C30.7481 18.0715 30.6589 18.0998 30.586 18.1545C30.5132 18.2093 30.4611 18.2873 30.4384 18.3757L29.6369 18.5765H30.4384L30.8391 18.8777Z" fill="black" fill-opacity="0.7"/>
<path d="M50.2707 32.0317C50.0241 32.0375 49.7812 32.094 49.5572 32.1976C49.3332 32.3012 49.1328 32.4498 48.9684 32.6342L50.972 32.0317H50.2707Z" fill="black" fill-opacity="0.7"/>
<path d="M13.9104 40.2655V41.5709L14.2109 41.8721L16.9156 41.0688L15.9138 39.3618L13.9104 40.2655Z" fill="black" fill-opacity="0.7"/>
<path d="M47.3656 40.9685L49.8698 39.3619L49.3689 39.1611L47.9666 38.5586L45.5625 40.1652C46.1135 40.5341 46.7233 40.8057 47.3656 40.9685Z" fill="black" fill-opacity="0.7"/>
<path d="M60.6886 32.1322L60.8889 31.4293L59.9874 30.626L54.1774 34.5421L52.8752 32.5338L51.9737 32.1322L52.8752 33.5379L53.6766 34.8433L53.3761 35.0441L54.0773 35.4458C54.5592 35.7532 54.9973 36.1248 55.3795 36.5503L54.9789 35.9478L60.6886 32.1322Z" fill="black" fill-opacity="0.7"/>
<path d="M57.7836 41.2697C57.2828 40.1651 56.7819 39.0606 56.1809 37.9561C56.3469 38.5433 56.4146 39.154 56.3813 39.7635C56.757 40.5144 57.0914 41.2854 57.3829 42.073L57.8838 41.5709C57.8838 41.4705 57.7836 41.3701 57.7836 41.2697Z" fill="black" fill-opacity="0.7"/>
<path d="M48.3676 55.5283H48.4678C62.4916 61.4526 60.5884 49.5035 58.585 43.4788H57.984C61.1894 52.7167 59.6868 60.2477 48.3676 55.5283Z" fill="black" fill-opacity="0.7"/>
<path d="M40.5523 41.7717L36.0446 30.3247H30.6353L31.4367 31.128C31.473 31.1688 31.5005 31.2165 31.5177 31.2683C31.5349 31.3201 31.5415 31.3748 31.5369 31.4292L28.5317 41.7717H28.4316L27.4298 42.7759H30.3348L29.6336 41.9726C29.6123 41.9537 29.5952 41.9305 29.5835 41.9046C29.5718 41.8786 29.5658 41.8504 29.5658 41.822C29.5658 41.7935 29.5718 41.7653 29.5835 41.7393C29.5952 41.7134 29.6123 41.6902 29.6336 41.6713L30.0343 40.0647C30.1345 39.8639 30.2347 39.7635 30.435 39.7635H35.0429L35.3434 39.9643L35.8442 41.4705C35.8656 41.4894 35.8826 41.5125 35.8943 41.5385C35.906 41.5645 35.9121 41.5926 35.9121 41.6211C35.9121 41.6496 35.906 41.6778 35.8943 41.7038C35.8826 41.7297 35.8656 41.7529 35.8442 41.7717L34.8425 42.7759H41.554L40.6525 41.7717C40.6372 41.7806 40.62 41.7852 40.6024 41.7852C40.5848 41.7852 40.5676 41.7806 40.5523 41.7717ZM34.4419 38.3577C34.4419 38.4581 34.3416 38.5585 34.1413 38.5585H30.9359C30.8827 38.5585 30.8318 38.5374 30.7942 38.4997C30.7566 38.4621 30.7355 38.411 30.7355 38.3577C30.6353 38.3577 30.6353 38.2573 30.6353 38.1569L32.0377 33.3371C32.0377 33.2367 32.1379 33.1363 32.3382 33.1363L32.6387 33.3371L34.542 38.0565C34.5466 38.1109 34.5401 38.1656 34.5229 38.2174C34.5057 38.2692 34.4781 38.317 34.4419 38.3577Z" fill="black" fill-opacity="0.7"/>
<path d="M31.5383 37.3535L33.3415 36.9519L32.3397 34.542L31.5383 37.3535Z" fill="black" fill-opacity="0.7"/>
<path d="M61.5903 31.4292L58.6853 41.7717C58.6588 41.7717 58.6333 41.7823 58.6145 41.8012C58.5957 41.82 58.5852 41.8455 58.5852 41.8722L57.5835 42.8763H60.3883L59.7873 42.073C59.751 42.0322 59.7234 41.9845 59.7062 41.9327C59.689 41.8809 59.6824 41.8261 59.6871 41.7717L60.1879 40.1651C60.2547 39.9643 60.3549 39.8639 60.4885 39.8639H65.1965L65.4971 40.0647L65.9979 41.5709C66.0981 41.6713 65.9979 41.7717 65.8977 41.8722L64.9962 42.8763H71.7077L70.8062 41.8722C70.7796 41.8722 70.7541 41.8616 70.7353 41.8427C70.7165 41.8239 70.706 41.7984 70.706 41.7717L66.1982 30.3247H60.5886L61.4902 31.128C61.5904 31.2284 61.6905 31.3288 61.5903 31.4292ZM62.4919 33.1363L62.7924 33.3371L64.6956 38.0565C64.7002 38.1109 64.6938 38.1656 64.6766 38.2174C64.6593 38.2692 64.6317 38.317 64.5955 38.3577C64.5955 38.411 64.5744 38.4621 64.5368 38.4997C64.4992 38.5374 64.4483 38.5585 64.3951 38.5585H60.8891C60.8529 38.5178 60.8253 38.4701 60.8081 38.4183C60.7909 38.3665 60.7844 38.3117 60.789 38.2573L62.1913 33.5379C62.1747 33.4911 62.1699 33.4408 62.1774 33.3917C62.1849 33.3426 62.2043 33.296 62.2341 33.2563C62.2638 33.2165 62.3029 33.1847 62.3479 33.1638C62.3929 33.1428 62.4424 33.1334 62.4919 33.1363Z" fill="black" fill-opacity="0.7"/>
<path d="M13.3092 41.8722C13.209 41.7717 13.209 41.7717 13.209 41.6713V34.6424C13.209 34.542 13.3092 34.3412 13.4094 34.3412C13.5095 34.3412 13.7099 34.3412 13.81 34.542L18.7184 42.8763H23.6267L22.625 41.8722C22.5671 41.8207 22.5312 41.7487 22.5249 41.6713V31.128L23.3262 30.3247H20.5215L21.3228 31.128V38.2573C21.3228 38.3577 21.2226 38.5585 21.1225 38.5585H20.7218L15.9136 30.4251H11.1054L11.8066 31.2284V41.6713C11.8066 41.7717 11.8066 41.8722 11.7065 41.8722L10.8049 42.8763H13.9102L13.3092 41.8722Z" fill="black" fill-opacity="0.7"/>
<path d="M44.9616 34.5421C45.0618 36.4499 46.4642 37.1528 48.0669 37.8557C48.5293 38.142 49.0377 38.3458 49.5694 38.4582C50.9718 38.9602 52.1739 39.4623 52.1739 40.4664C52.1267 40.7991 51.988 41.1121 51.7732 41.3701C51.1681 41.8201 50.4205 42.0342 49.6696 41.9726C48.0243 42.0021 46.4117 41.5101 45.0618 40.5668V43.3784L46.1636 42.6755H46.4642C48.3722 43.4712 50.4967 43.5776 52.4744 42.9767C53.6481 42.6104 54.6464 41.8241 55.2792 40.7677C55.4783 40.3259 55.5813 39.8467 55.5813 39.3619C55.5813 38.8771 55.4783 38.3979 55.2792 37.9561C54.7213 36.8935 53.7949 36.0721 52.6747 35.6466L51.8734 35.3454L48.7681 34.04C48.5494 33.9337 48.3718 33.758 48.2631 33.54C48.1544 33.3221 48.1206 33.0742 48.167 32.8351C48.2797 32.42 48.529 32.0552 48.8745 31.8C49.22 31.5448 49.6414 31.4142 50.0703 31.4293C51.5782 31.3854 53.058 31.8445 54.2775 32.7346V29.9231L53.3759 30.5256C53.2757 30.5256 53.1756 30.626 53.0754 30.5256C51.2863 29.8963 49.3312 29.932 47.566 30.626C46.9384 30.9348 46.3636 31.3416 45.8631 31.8309L45.2621 32.5338C44.9611 33.1572 44.8563 33.8576 44.9616 34.5421Z" fill="black" fill-opacity="0.7"/>
<path d="M45.9646 31.8308L45.3635 32.5337L45.9646 31.8308Z" fill="black" fill-opacity="0.7"/>
<path d="M86.9333 3.71537C83.227 9.03724 77.7176 13.5558 71.3066 17.4719C69.7941 15.0369 68.0133 12.7802 65.9976 10.7443C60.8985 5.64824 54.4085 2.17963 47.3456 0.775729C40.2828 -0.628168 32.9634 0.0955079 26.3103 2.85552C19.6572 5.61553 13.9683 10.2883 9.96068 16.2847C5.9531 22.2811 3.80634 29.3327 3.79106 36.5503C3.78825 39.2204 4.09076 41.8819 4.69263 44.4829L-0.0154419 47.1941L0.886126 47.4953L4.89298 45.3866C6.52614 51.7745 9.84834 57.6024 14.5094 62.256L14.9101 62.6576C13.2072 64.1638 11.5043 65.7704 9.90156 67.4774V68.6824C11.8048 66.8749 13.8082 65.1679 15.8116 63.4609C21.036 68.157 27.5011 71.2422 34.4313 72.3462C41.3615 73.4503 48.4624 72.5264 54.8817 69.6853C61.3011 66.8443 66.7662 62.2068 70.6213 56.3293C74.4765 50.4519 76.5579 43.5842 76.6157 36.5503C76.6211 31.5843 75.6333 26.6676 73.7107 22.0909C80.0215 16.4678 84.7296 10.5434 86.9333 3.71537ZM75.8143 36.5503C75.8206 41.2264 74.8933 45.8564 73.0869 50.1677C71.2805 54.479 68.6316 58.3842 65.2963 61.6535C62.0214 64.9788 58.1229 67.6222 53.8251 69.4316C49.5273 71.2411 44.915 72.1808 40.2535 72.1968C31.4146 72.217 22.8962 68.8804 16.4127 62.8584C22.8237 57.5366 29.6353 52.6163 36.3468 48.0978C37.7492 50.0056 40.1533 53.018 41.3553 52.0139C42.5574 51.0097 39.6524 49.604 37.3485 47.4953L44.4607 42.7759V40.9685L42.1567 42.4747L42.7578 42.9767C42.8579 43.0771 42.8579 43.1775 42.8579 43.3784L42.5574 43.5792H40.554L36.447 46.2903L34.2432 43.5792H34.143L33.8425 43.3784C33.7423 43.278 33.8425 43.1775 33.8425 43.0771C33.8425 42.9767 32.5403 41.4705 31.9393 40.5668H30.8373C32.4401 42.7759 33.9427 44.7841 35.5454 46.692C35.5454 46.7186 35.556 46.7442 35.5748 46.763C35.5936 46.7818 35.619 46.7924 35.6456 46.7924C28.6619 51.419 22.0017 56.5185 15.7115 62.0551C15.5111 61.9547 15.4109 61.7539 15.3108 61.6535C10.7013 57.056 7.41386 51.2977 5.79449 44.985L10.0017 43.3784C9.90153 43.1775 9.90153 43.0771 10.0017 42.9767L11.5043 41.5709V41.2697L5.49399 44.0813C4.97968 41.6036 4.71126 39.081 4.69263 36.5503C4.70576 28.7996 7.23864 21.2644 11.9076 15.0862C16.5765 8.90807 23.127 4.42365 30.5667 2.31236C38.0064 0.201076 45.9299 0.577973 53.1367 3.38595C60.3435 6.19393 66.441 11.28 70.5053 17.8736C66.948 19.9675 63.2684 21.8452 59.4864 23.4967C57.5832 24.3 55.6799 25.2037 53.6764 25.9066L49.2689 27.6136C44.661 21.8901 38.9512 16.6686 33.0411 14.0579C20.6199 8.53518 19.6182 21.1872 26.4298 33.6383L27.4316 35.2449L23.2243 36.6507V39.4623L28.8339 38.0565L29.9358 34.3412L28.0326 35.0441L26.8305 32.6342C17.9152 14.3591 25.6284 8.63559 38.3502 17.974C42.1444 20.8963 45.6047 24.2301 48.6679 27.9148L37.3485 31.8309L38.8511 35.5462C40.6788 35.1376 42.4843 34.6349 44.2603 34.04C44.3747 33.1541 44.7228 32.3149 45.2687 31.6088C45.8145 30.9028 46.5384 30.3555 47.3656 30.0235C48.1682 29.7062 49.0111 29.5034 49.8699 29.421H50.6713C51.5188 29.4569 52.3592 29.5917 53.1756 29.8227L54.4778 29.0194H54.7783C54.8315 29.0194 54.8824 29.0405 54.92 29.0782C54.9576 29.1158 54.9787 29.1669 54.9787 29.2202V30.5256L60.2878 28.3165C64.5248 26.3536 68.5523 23.9649 72.3083 21.1872C69.0027 24.0991 65.2963 26.8103 61.3896 29.6218H64.1944C67.2523 27.4336 70.1947 25.0875 73.0096 22.593C74.8635 27.0114 75.8171 31.7569 75.8143 36.5503Z" fill="black" fill-opacity="0.7"/>
</g>
</svg>
