<svg width="114" height="73" viewBox="0 0 114 73" fill="none" xmlns="http://www.w3.org/2000/svg">
<mask id="mask0_57_32" style="mask-type:alpha" maskUnits="userSpaceOnUse" x="1" y="0" width="113" height="73">
<rect x="1" width="113" height="73" fill="#D9D9D9"/>
</mask>
<g mask="url(#mask0_57_32)">
<path d="M59.0627 26.7098C56.9591 25.3041 54.1542 24.802 50.3477 24.802H43.3357V48.399H50.5481C52.801 48.4435 55.0427 48.069 57.1594 47.2944C58.969 46.5732 60.4854 45.2652 61.4668 43.5792C62.5675 41.4426 63.0858 39.0525 62.9694 36.6507C63.0329 34.5716 62.7276 32.4977 62.0678 30.5255C61.4666 28.9825 60.4204 27.6541 59.0627 26.7098ZM57.1594 40.7676C56.8906 41.8537 56.2531 42.8123 55.3563 43.4788C54.0703 44.1888 52.6163 44.5359 51.1491 44.4829H48.6449V28.7181H50.7484C52.852 28.7181 54.4548 29.0193 55.4565 29.8226C56.2617 30.4275 56.8573 31.2704 57.1594 32.2325C57.5107 33.6101 57.6791 35.0281 57.6603 36.4499C57.6723 37.9043 57.504 39.3547 57.1594 40.7676Z" fill="black" fill-opacity="0.7"/>
<path d="M66.3739 48.399H71.683V38.3577H77.8936V34.542H71.683V28.7181H81.2994V24.802H66.3739V48.399Z" fill="black" fill-opacity="0.7"/>
<path d="M84.7053 48.399H90.0146V24.802H84.7053C84.7053 24.802 84.6051 48.399 84.7053 48.399Z" fill="black" fill-opacity="0.7"/>
<path d="M113.653 24.802H108.244V38.3577L98.2268 24.802H94.0196V48.399H99.3286V34.542L109.246 48.399H113.653V24.802Z" fill="black" fill-opacity="0.7"/>
<path d="M22.9999 49.3028C22.5992 49.1019 22.0984 48.7003 20.8963 46.692L18.4922 42.6755L15.6874 37.9561L15.3869 37.5545L15.7876 37.3537C19.0932 36.2491 20.9965 33.2367 20.9965 29.0194C21.0099 27.9709 20.7924 26.9323 20.3596 25.9777C19.9267 25.0231 19.2891 24.176 18.4922 23.4967C18.2919 23.1955 17.9913 23.0951 17.791 22.8942C15.5872 21.388 12.6823 20.886 8.7756 20.886H1.26278C0.761922 20.886 0.761958 21.1872 0.862129 21.388C1.15966 21.7608 1.33464 22.2169 1.36298 22.6934V46.2904C1.26281 47.2945 1.06247 47.5958 0.862129 47.7966C0.661787 47.9974 0.761922 48.3991 1.26278 48.3991H6.77218V38.3578H9.27645L10.9794 41.2698L13.1831 45.0854L14.285 46.8929C15.5872 49.1019 16.7893 50.4073 19.1934 50.7085H20.5958C21.3524 50.66 22.0963 50.4905 22.7995 50.2065H22.9999C23.6009 49.8048 23.4006 49.4032 22.9999 49.3028ZM10.178 34.4417H6.77218V24.8021H10.178C11.9811 24.8021 13.2833 25.0029 14.285 25.9066C14.6093 26.3038 14.8789 26.7428 15.0864 27.212C15.3425 27.9206 15.4779 28.6674 15.4871 29.4211C15.4871 30.7264 15.2867 34.4417 10.178 34.4417Z" fill="black" fill-opacity="0.7"/>
<path d="M30.0117 38.3577H36.2224V34.542H30.0117V28.7181H39.6283V24.802H24.7026V48.399H39.6283V44.4829H30.0117V38.3577Z" fill="black" fill-opacity="0.7"/>
</g>
</svg>
