 <svg aria-hidden="true" style="position: absolute; width: 0; height: 0; overflow: hidden;" version="1.1" xmlns="http://www.w3.org/2000/svg" xmlns:xlink="http://www.w3.org/1999/xlink">
<defs>
<symbol id="icon-instagram" viewBox="0 0 32 32">
<path d="M16.001 1.372c-3.973 0-4.472 0.017-6.032 0.088-1.557 0.071-2.62 0.318-3.55 0.68-0.962 0.374-1.778 0.873-2.591 1.687s-1.314 1.629-1.688 2.591c-0.363 0.93-0.61 1.994-0.68 3.55-0.070 1.56-0.088 2.059-0.088 6.032s0.018 4.47 0.088 6.030c0.072 1.557 0.318 2.62 0.68 3.55 0.374 0.962 0.874 1.778 1.687 2.592s1.629 1.315 2.59 1.688c0.931 0.362 1.994 0.608 3.551 0.68 1.56 0.071 2.059 0.088 6.031 0.088s4.47-0.017 6.031-0.088c1.557-0.071 2.622-0.318 3.552-0.68 0.962-0.373 1.777-0.875 2.59-1.688s1.314-1.63 1.688-2.591c0.36-0.93 0.606-1.994 0.68-3.55 0.070-1.56 0.088-2.058 0.088-6.031s-0.018-4.471-0.088-6.032c-0.073-1.557-0.32-2.62-0.68-3.55-0.375-0.962-0.875-1.778-1.688-2.591s-1.627-1.314-2.59-1.687c-0.933-0.362-1.996-0.608-3.554-0.68-1.56-0.071-2.057-0.088-6.031-0.088h0.005zM14.689 4.008c0.389-0.001 0.824 0 1.312 0 3.906 0 4.369 0.014 5.911 0.084 1.426 0.065 2.2 0.304 2.716 0.504 0.683 0.265 1.169 0.582 1.681 1.094s0.829 1 1.095 1.682c0.2 0.515 0.439 1.289 0.504 2.715 0.070 1.542 0.085 2.005 0.085 5.909s-0.015 4.367-0.085 5.909c-0.065 1.426-0.304 2.2-0.504 2.716-0.265 0.683-0.583 1.169-1.095 1.68s-0.998 0.829-1.681 1.094c-0.515 0.201-1.29 0.439-2.716 0.504-1.542 0.070-2.005 0.085-5.911 0.085s-4.369-0.015-5.911-0.085c-1.426-0.066-2.2-0.304-2.716-0.504-0.683-0.265-1.17-0.582-1.682-1.094s-0.829-0.998-1.095-1.681c-0.2-0.515-0.439-1.289-0.504-2.715-0.070-1.542-0.084-2.005-0.084-5.912s0.014-4.367 0.084-5.909c0.065-1.426 0.304-2.2 0.504-2.716 0.265-0.683 0.583-1.17 1.095-1.682s1-0.829 1.682-1.095c0.516-0.201 1.29-0.439 2.716-0.504 1.349-0.061 1.872-0.079 4.599-0.082v0.004zM23.81 6.437c-0.969 0-1.755 0.785-1.755 1.755s0.786 1.755 1.755 1.755c0.969 0 1.755-0.786 1.755-1.755s-0.786-1.755-1.755-1.755zM16.001 8.488c-4.149 0-7.512 3.364-7.512 7.512s3.364 7.511 7.512 7.511c4.149 0 7.511-3.362 7.511-7.511s-3.363-7.512-7.511-7.512zM16.001 11.124c2.693 0 4.876 2.183 4.876 4.876s-2.183 4.876-4.876 4.876c-2.693 0-4.876-2.183-4.876-4.876s2.183-4.876 4.876-4.876z"></path>
</symbol>
<symbol id="icon-internet" viewBox="0 0 32 32">
<path d="M30.629 15.98c0 0.989-0.101 1.977-0.299 2.94-0.193 0.94-0.479 1.863-0.853 2.745-0.366 0.867-0.819 1.702-1.349 2.481-0.522 0.774-1.124 1.5-1.784 2.162-0.662 0.659-1.391 1.259-2.164 1.783-0.782 0.526-1.618 0.979-2.485 1.347-0.884 0.372-1.809 0.658-2.748 0.85-0.964 0.198-1.956 0.299-2.947 0.299s-1.983-0.101-2.946-0.299c-0.941-0.193-1.866-0.478-2.749-0.85-0.867-0.367-1.704-0.82-2.486-1.347-0.774-0.524-1.502-1.124-2.163-1.783-0.661-0.662-1.263-1.388-1.786-2.162-0.527-0.779-0.982-1.614-1.349-2.481-0.374-0.882-0.661-1.805-0.854-2.745-0.196-0.963-0.296-1.951-0.296-2.94s0.1-1.98 0.296-2.941c0.194-0.94 0.48-1.865 0.854-2.745 0.367-0.867 0.821-1.703 1.349-2.482 0.523-0.775 1.124-1.499 1.786-2.162 0.661-0.659 1.389-1.258 2.163-1.781 0.781-0.529 1.619-0.981 2.486-1.35 0.883-0.373 1.808-0.659 2.749-0.85 0.963-0.197 1.954-0.297 2.946-0.297s1.982 0.1 2.947 0.297c0.939 0.191 1.864 0.477 2.748 0.85 0.867 0.368 1.704 0.821 2.485 1.35 0.774 0.524 1.502 1.122 2.165 1.781 0.661 0.663 1.262 1.387 1.784 2.162 0.53 0.779 0.984 1.615 1.349 2.482 0.374 0.881 0.66 1.805 0.853 2.745 0.198 0.961 0.299 1.951 0.299 2.941zM10.669 4.696c-3.484 1.643-6.084 4.848-6.895 8.711 0.329 0.003 5.535 0.068 11.534-1.523-2.162-3.836-4.472-6.967-4.639-7.189zM16.343 13.806c-6.432 1.923-12.605 1.785-12.826 1.776-0.004 0.134-0.010 0.264-0.010 0.398 0 3.205 1.211 6.126 3.201 8.335-0.004-0.006 3.415-6.063 10.156-8.24 0.163-0.054 0.329-0.103 0.493-0.15-0.314-0.709-0.656-1.419-1.014-2.12zM24.25 6.617c-2.2-1.937-5.087-3.111-8.251-3.111-1.015 0-2 0.123-2.944 0.349 0.187 0.251 2.534 3.36 4.67 7.277 4.714-1.765 6.493-4.47 6.524-4.515zM18.208 17.993c-0.028 0.009-0.056 0.017-0.083 0.027-7.371 2.566-9.778 7.737-9.804 7.794 2.121 1.647 4.781 2.64 7.678 2.64 1.73 0 3.378-0.352 4.877-0.989-0.185-1.090-0.911-4.91-2.669-9.473zM22.98 26.326c2.805-1.89 4.797-4.892 5.353-8.368-0.257-0.083-3.752-1.188-7.785-0.542 1.639 4.497 2.304 8.159 2.432 8.91zM18.687 12.991c0.29 0.595 0.571 1.2 0.83 1.809 0.092 0.218 0.182 0.432 0.27 0.646 4.292-0.539 8.52 0.368 8.701 0.405-0.029-2.957-1.088-5.671-2.841-7.796-0.024 0.033-2.027 2.924-6.96 4.936z"></path>
</symbol>
<symbol id="icon-twitter" viewBox="0 0 38 32">
<path d="M18.050 8.172l0.081 1.329-1.343-0.163c-4.889-0.624-9.159-2.739-12.785-6.291l-1.773-1.763-0.457 1.302c-0.967 2.901-0.349 5.966 1.665 8.027 1.074 1.139 0.833 1.302-1.021 0.624-0.645-0.217-1.209-0.38-1.262-0.298-0.188 0.19 0.457 2.657 0.967 3.634 0.698 1.356 2.122 2.685 3.68 3.471l1.316 0.624-1.558 0.027c-1.504 0-1.558 0.027-1.397 0.597 0.537 1.763 2.659 3.634 5.023 4.447l1.665 0.569-1.45 0.868c-2.149 1.247-4.674 1.952-7.198 2.007-1.209 0.027-2.203 0.136-2.203 0.217 0 0.271 3.277 1.79 5.184 2.386 5.721 1.763 12.517 1.003 17.62-2.007 3.626-2.142 7.252-6.4 8.944-10.521 0.913-2.196 1.826-6.21 1.826-8.135 0-1.247 0.081-1.41 1.585-2.902 0.886-0.868 1.719-1.817 1.88-2.088 0.268-0.515 0.242-0.515-1.128-0.054-2.283 0.814-2.605 0.705-1.477-0.515 0.833-0.868 1.827-2.441 1.827-2.902 0-0.081-0.403 0.054-0.86 0.298-0.484 0.271-1.558 0.678-2.364 0.922l-1.45 0.461-1.316-0.895c-0.725-0.488-1.746-1.030-2.283-1.193-1.37-0.38-3.465-0.325-4.7 0.108-3.358 1.22-5.479 4.366-5.238 7.81z"></path>
</symbol>
<symbol id="icon-youtube" viewBox="0 0 45 32">
<path d="M38.403 2.799c1.762 0.484 3.15 1.909 3.621 3.718 0.856 3.28 0.856 10.123 0.856 10.123s0 6.843-0.856 10.123c-0.471 1.81-1.859 3.235-3.621 3.718-3.194 0.879-16.003 0.879-16.003 0.879s-12.809 0-16.003-0.879c-1.762-0.484-3.15-1.909-3.621-3.718-0.856-3.28-0.856-10.123-0.856-10.123s0-6.843 0.856-10.123c0.471-1.81 1.859-3.235 3.621-3.718 3.194-0.879 16.003-0.879 16.003-0.879s12.809 0 16.003 0.879zM18.56 10.88v12.8l10.24-6.4-10.24-6.4z"></path>
</symbol>
<symbol id="icon-airbnb" viewBox="0 0 64 32">
<path d="M33.924 10.579c0 0.265-0.078 0.524-0.225 0.744s-0.355 0.392-0.599 0.493c-0.244 0.101-0.513 0.128-0.772 0.076s-0.497-0.179-0.684-0.366c-0.187-0.187-0.314-0.426-0.366-0.685s-0.025-0.529 0.076-0.774c0.101-0.245 0.272-0.454 0.492-0.601s0.478-0.226 0.742-0.226c0.351 0.011 0.684 0.156 0.932 0.405s0.392 0.583 0.404 0.934zM28.537 13.212v0.312c-0.25-0.267-0.554-0.477-0.892-0.616s-0.702-0.203-1.067-0.187c-0.52-0.006-1.036 0.093-1.517 0.291s-0.917 0.491-1.283 0.862c-0.366 0.371-0.653 0.811-0.845 1.296s-0.285 1.003-0.273 1.524c-0.018 0.525 0.070 1.048 0.259 1.537s0.476 0.936 0.842 1.311c0.366 0.375 0.805 0.673 1.289 0.873s1.004 0.301 1.528 0.295c0.369 0.013 0.736-0.057 1.075-0.203s0.641-0.367 0.884-0.645v0.357c0 0.071 0.028 0.139 0.078 0.189s0.118 0.078 0.189 0.078h1.647v-7.587h-1.647c-0.075 0.011-0.143 0.048-0.192 0.106s-0.076 0.131-0.075 0.207zM28.537 18.076c-0.2 0.246-0.451 0.445-0.735 0.583s-0.596 0.214-0.912 0.22c-1.291 0-2.271-0.803-2.271-2.187-0.007-0.297 0.048-0.591 0.161-0.866s0.281-0.522 0.495-0.728c0.213-0.206 0.467-0.364 0.745-0.467s0.574-0.145 0.869-0.127c0.321 0.005 0.637 0.084 0.922 0.231s0.534 0.358 0.725 0.617v2.722zM31.653 12.899h1.914v7.587h-1.914v-7.587zM60.458 12.721c-0.365-0.015-0.729 0.049-1.067 0.187s-0.642 0.349-0.892 0.616v-4.24h-1.914v11.202h1.647c0.071 0 0.139-0.028 0.189-0.078s0.078-0.118 0.078-0.189v-0.357c0.244 0.278 0.546 0.498 0.884 0.645s0.706 0.216 1.075 0.203c0.52 0 1.035-0.104 1.514-0.308s0.912-0.501 1.273-0.876c0.361-0.375 0.644-0.819 0.83-1.305s0.274-1.006 0.256-1.527c0.018-0.519-0.069-1.036-0.256-1.52s-0.47-0.925-0.832-1.297c-0.362-0.371-0.796-0.665-1.274-0.864s-0.992-0.298-1.51-0.291zM60.146 18.879c-0.322 0.002-0.64-0.074-0.927-0.222s-0.534-0.362-0.72-0.626v-2.678c0.198-0.252 0.447-0.457 0.732-0.604s0.596-0.23 0.916-0.244c1.291 0 2.271 0.803 2.271 2.187s-0.98 2.187-2.271 2.187zM55.561 16.023v4.507h-1.915v-4.329c0-1.205-0.4-1.741-1.469-1.741-0.304 0.012-0.603 0.086-0.878 0.216s-0.522 0.315-0.724 0.543v5.266h-1.915v-7.587h1.514c0.080 0.009 0.153 0.045 0.21 0.102s0.092 0.131 0.102 0.21v0.312c0.267-0.27 0.587-0.48 0.94-0.619s0.73-0.201 1.108-0.185c0.763-0.039 1.512 0.216 2.092 0.714 0.668 0.58 0.935 1.294 0.935 2.588zM43.985 12.721c-0.365-0.015-0.729 0.049-1.067 0.187s-0.642 0.349-0.892 0.616v-4.24h-1.914v11.202h1.603c0.075 0.001 0.149-0.026 0.206-0.075s0.095-0.118 0.106-0.193v-0.357c0.237 0.274 0.531 0.493 0.862 0.639s0.69 0.218 1.052 0.209c0.524 0.006 1.044-0.094 1.528-0.295s0.923-0.498 1.289-0.873c0.366-0.375 0.652-0.822 0.842-1.311s0.278-1.013 0.26-1.537c0.018-0.519-0.069-1.036-0.256-1.52s-0.47-0.925-0.832-1.297c-0.362-0.371-0.796-0.665-1.274-0.864s-0.992-0.298-1.511-0.291zM43.674 18.879c-0.322 0.002-0.64-0.074-0.927-0.222s-0.534-0.362-0.72-0.626v-2.678c0.198-0.252 0.447-0.457 0.731-0.604s0.597-0.23 0.916-0.244c0.295-0.019 0.592 0.024 0.869 0.127s0.532 0.261 0.745 0.467c0.213 0.206 0.382 0.453 0.495 0.728s0.168 0.569 0.161 0.866c0 1.383-0.98 2.187-2.271 2.187zM38.42 12.721c0.299-0.008 0.599 0.022 0.89 0.089v1.785c0 0-1.603-0.536-2.627 0.625v5.311h-1.914v-7.631h1.647c0.134 0 0.267 0.178 0.267 0.312v0.312c0.452-0.485 1.075-0.773 1.736-0.803zM18.386 19.817c-0.077-0.249-0.181-0.489-0.312-0.714-0.134-0.357-0.312-0.714-0.445-1.026-1.425-3.035-2.894-6.069-4.452-9.104l-0.089-0.134-0.445-0.937c-0.216-0.395-0.47-0.769-0.757-1.116-0.295-0.397-0.677-0.721-1.118-0.945s-0.926-0.344-1.42-0.349c-0.497-0-0.987 0.112-1.434 0.328s-0.84 0.531-1.148 0.921c-0.283 0.324-0.522 0.685-0.712 1.071-0.178 0.357-0.312 0.669-0.49 0.982v0.089c-1.558 3.035-3.072 6.069-4.452 9.104h-0.089c-0.134 0.312-0.267 0.669-0.445 1.026l-0.312 0.759c-0.248 0.701-0.324 1.45-0.223 2.187 0.104 0.741 0.402 1.44 0.864 2.028s1.070 1.043 1.763 1.319c0.506 0.218 1.052 0.325 1.603 0.312h0.534c0.712-0.059 1.399-0.288 2.003-0.669 0.948-0.546 1.792-1.256 2.493-2.098 0.711 0.831 1.554 1.539 2.493 2.098 0.609 0.365 1.296 0.579 2.003 0.625h0.534c0.55 0.013 1.097-0.094 1.603-0.312 0.693-0.276 1.302-0.731 1.763-1.319s0.759-1.288 0.864-2.028c0.162-0.715 0.099-1.463-0.178-2.142v0.045zM9.304 20.843c-1.069-1.339-1.781-2.633-2.003-3.749-0.093-0.394-0.123-0.801-0.089-1.205 0.045-0.308 0.167-0.6 0.356-0.848 0.195-0.279 0.455-0.506 0.758-0.662s0.638-0.235 0.978-0.231c0.349-0.020 0.697 0.052 1.009 0.209s0.579 0.392 0.772 0.684c0.175 0.251 0.282 0.543 0.312 0.848 0.072 0.4 0.057 0.811-0.045 1.205-0.223 1.071-0.935 2.365-2.048 3.749zM17.362 21.825c-0.082 0.511-0.292 0.992-0.612 1.398s-0.737 0.724-1.213 0.923c-0.492 0.207-1.028 0.284-1.558 0.223-0.538-0.064-1.055-0.247-1.514-0.535-0.857-0.528-1.623-1.191-2.271-1.964 1.108-1.283 1.928-2.79 2.404-4.418 0.138-0.57 0.168-1.16 0.089-1.741-0.043-0.489-0.229-0.955-0.534-1.339-0.309-0.457-0.728-0.827-1.219-1.077s-1.036-0.371-1.586-0.351c-0.555-0.015-1.106 0.108-1.603 0.357s-0.925 0.617-1.247 1.071c-0.268 0.405-0.45 0.86-0.534 1.339-0.102 0.579-0.072 1.175 0.089 1.74 0.312 1.294 1.113 2.812 2.449 4.463-0.662 0.775-1.443 1.438-2.315 1.964-0.47 0.257-0.983 0.424-1.514 0.491-0.511 0.079-1.035 0.018-1.514-0.178-0.49-0.191-0.919-0.512-1.24-0.929s-0.524-0.913-0.585-1.437c-0.093-0.527-0.031-1.070 0.178-1.562 0.061-0.227 0.135-0.451 0.223-0.669 0.178-0.312 0.312-0.669 0.49-0.982 1.38-3.035 2.894-6.114 4.452-9.104v-0.134c0.178-0.268 0.312-0.58 0.49-0.893 0.135-0.322 0.315-0.622 0.534-0.893 0.201-0.235 0.45-0.425 0.73-0.554s0.586-0.197 0.895-0.197c0.309 0 0.614 0.067 0.895 0.197s0.53 0.319 0.73 0.554c0.22 0.271 0.399 0.571 0.534 0.893 0.178 0.312 0.312 0.625 0.49 0.893v0.134c1.647 2.99 3.116 6.069 4.497 9.059 0.178 0.312 0.312 0.669 0.49 0.982 0.088 0.218 0.162 0.442 0.223 0.669 0.169 0.502 0.23 1.035 0.178 1.562v0.045z"></path>
</symbol>
<symbol id="icon-cisco" viewBox="0 0 60 32">
<path d="M23.267 29.145v2.361h0.196c0.536 0.126 1.085 0.192 1.635 0.197h1.439c0.466 0.009 0.929-0.057 1.374-0.197 0.536-0.105 1.034-0.354 1.439-0.721 0.34-0.31 0.608-0.69 0.785-1.115 0.162-0.372 0.246-0.774 0.246-1.18s-0.084-0.808-0.246-1.18c-0.163-0.397-0.408-0.755-0.72-1.049-0.305-0.315-0.689-0.542-1.112-0.656l-1.766-0.59c-0.196-0.131-0.392-0.197-0.458-0.525-0.064-0.072-0.1-0.166-0.1-0.262s0.036-0.19 0.1-0.262c0-0.066 0.065-0.066 0.065-0.197s0.131-0.066 0.196-0.066h0.131c0.168-0.141 0.372-0.231 0.589-0.262h1.178c0.446 0.024 0.887 0.112 1.308 0.262h0.131v-2.164h-0.262c-0.421-0.15-0.862-0.238-1.308-0.262-0.587-0.066-1.179-0.066-1.766 0-0.742 0.088-1.445 0.384-2.028 0.852-0.412 0.311-0.711 0.749-0.85 1.246-0.26 0.72-0.26 1.509 0 2.23 0.099 0.393 0.33 0.741 0.654 0.984l0.785 0.59 1.243 0.525h0.392l0.262 0.131h0.065l0.523 0.328c0.068 0.039 0.123 0.097 0.158 0.167s0.048 0.149 0.038 0.227v0.393c-0.014 0.114-0.057 0.223-0.126 0.315s-0.161 0.164-0.266 0.21c-0.212 0.142-0.465 0.211-0.72 0.197-0.337 0.132-0.71 0.132-1.047 0-0.444 0.009-0.886-0.057-1.308-0.197-0.253-0.004-0.5-0.072-0.72-0.197l-0.131-0.197z"></path>
<path d="M13.586 31.44v-2.82c-0.601 0.334-1.275 0.514-1.963 0.525-0.345 0.047-0.697 0.013-1.027-0.101s-0.628-0.304-0.871-0.555c-0.212-0.131-0.396-0.303-0.542-0.505s-0.251-0.432-0.308-0.675c-0.172-0.551-0.217-1.134-0.131-1.705 0.185-0.564 0.525-1.064 0.981-1.443 0.444-0.274 0.93-0.474 1.439-0.59 0.905-0.093 1.817 0.089 2.617 0.525h0.131v-2.82h-0.131c-0.774-0.282-1.604-0.372-2.42-0.262-0.791 0.017-1.57 0.196-2.29 0.525-0.731 0.304-1.365 0.803-1.832 1.443-0.751 0.946-1.171 2.113-1.194 3.322s0.35 2.392 1.064 3.367c0.71 0.937 1.731 1.589 2.878 1.836 1.231 0.274 2.508 0.251 3.729-0.066h-0.131z"></path>
<path d="M19.8 31.637v-10.427h-2.617v10.427h2.617z"></path>
<path d="M0.306 12.817c0.045 0.33 0.207 0.633 0.458 0.852 0.252 0.223 0.58 0.341 0.916 0.328 0.332-0.009 0.653-0.124 0.916-0.328 0.136-0.094 0.244-0.222 0.313-0.372s0.096-0.316 0.079-0.48v-2.885c-0.058-0.333-0.192-0.647-0.393-0.918-0.242-0.247-0.571-0.389-0.916-0.393-0.172-0.005-0.343 0.027-0.502 0.095s-0.3 0.17-0.414 0.299c-0.144 0.105-0.261 0.243-0.341 0.403s-0.12 0.336-0.117 0.515v2.885z"></path>
<path d="M7.502 12.817c0.045 0.33 0.207 0.633 0.458 0.852 0.252 0.223 0.58 0.341 0.916 0.328 0.332-0.009 0.653-0.124 0.916-0.328 0.136-0.094 0.244-0.222 0.313-0.372s0.097-0.316 0.079-0.48v-6.361c-0.044-0.337-0.18-0.654-0.393-0.918-0.242-0.247-0.571-0.389-0.916-0.393-0.174-0.022-0.35 0.002-0.511 0.072s-0.301 0.18-0.404 0.322c-0.265 0.235-0.429 0.564-0.458 0.918v6.361z"></path>
<path d="M14.501 15.505c0.045 0.33 0.207 0.633 0.458 0.853 0.252 0.223 0.58 0.341 0.916 0.328 0.332-0.009 0.653-0.124 0.916-0.328 0.136-0.094 0.244-0.222 0.313-0.372s0.096-0.316 0.079-0.48v-13.902c-0.044-0.337-0.18-0.654-0.392-0.918-0.242-0.247-0.571-0.389-0.916-0.393-0.174-0.022-0.35 0.002-0.511 0.072s-0.301 0.18-0.404 0.322c-0.265 0.235-0.429 0.564-0.458 0.918v13.902z"></path>
<path d="M21.763 12.817c0.008 0.164 0.049 0.324 0.119 0.472s0.169 0.281 0.291 0.39c0.122 0.11 0.264 0.194 0.418 0.249s0.318 0.078 0.481 0.069c0.332-0.009 0.653-0.124 0.916-0.328 0.136-0.094 0.244-0.222 0.313-0.372s0.097-0.316 0.079-0.48v-6.361c-0.044-0.337-0.18-0.654-0.393-0.918-0.242-0.247-0.571-0.389-0.916-0.393-0.173-0.016-0.348 0.012-0.508 0.080s-0.3 0.176-0.408 0.313c-0.247 0.242-0.388 0.572-0.392 0.918v6.361z"></path>
<path d="M28.828 12.817c0.008 0.164 0.049 0.324 0.119 0.472s0.169 0.281 0.291 0.39c0.122 0.11 0.263 0.194 0.418 0.249s0.318 0.078 0.481 0.069c0.354 0 0.698-0.115 0.981-0.328 0.127-0.102 0.229-0.232 0.297-0.38s0.101-0.31 0.096-0.473v-2.885c-0.058-0.332-0.192-0.647-0.392-0.918-0.269-0.246-0.617-0.386-0.981-0.393-0.345 0.005-0.674 0.146-0.916 0.393-0.246 0.242-0.388 0.572-0.392 0.918v2.885z"></path>
<path d="M35.958 12.817c0.008 0.164 0.049 0.324 0.119 0.472s0.169 0.281 0.291 0.39c0.122 0.11 0.263 0.194 0.418 0.249s0.318 0.078 0.481 0.069c0.332-0.009 0.653-0.124 0.916-0.328 0.136-0.094 0.244-0.222 0.313-0.372s0.097-0.316 0.079-0.48v-6.361c-0.044-0.337-0.18-0.654-0.393-0.918-0.242-0.247-0.571-0.389-0.916-0.393-0.173-0.016-0.348 0.012-0.508 0.080s-0.3 0.176-0.408 0.313c-0.247 0.242-0.388 0.572-0.392 0.918v6.361z"></path>
<path d="M43.022 15.505c0.008 0.164 0.049 0.324 0.119 0.472s0.169 0.281 0.291 0.39c0.122 0.11 0.264 0.194 0.418 0.249s0.318 0.078 0.481 0.069c0.354 0 0.698-0.115 0.981-0.328 0.127-0.102 0.229-0.232 0.297-0.38s0.101-0.31 0.096-0.473v-13.902c-0.044-0.337-0.18-0.654-0.393-0.918-0.269-0.246-0.617-0.386-0.981-0.393-0.173-0.016-0.348 0.012-0.508 0.080s-0.3 0.176-0.408 0.313c-0.247 0.242-0.388 0.572-0.392 0.918v13.902z"></path>
<path d="M50.155 12.817c0.008 0.164 0.049 0.324 0.119 0.472s0.169 0.281 0.291 0.39 0.263 0.194 0.418 0.249c0.154 0.055 0.318 0.078 0.481 0.069 0.332-0.009 0.653-0.124 0.916-0.328 0.136-0.094 0.244-0.222 0.313-0.372s0.096-0.316 0.079-0.48v-6.361c-0.044-0.337-0.18-0.654-0.392-0.918-0.242-0.247-0.571-0.389-0.916-0.393-0.173-0.016-0.348 0.012-0.508 0.080s-0.3 0.176-0.408 0.313c-0.246 0.242-0.388 0.572-0.392 0.918v6.361z"></path>
<path d="M57.219 12.817c0.021 0.323 0.161 0.627 0.392 0.853 0.278 0.222 0.626 0.338 0.981 0.328 0.332-0.009 0.653-0.124 0.916-0.328 0.127-0.102 0.229-0.232 0.297-0.38s0.101-0.31 0.096-0.473v-2.885c-0.058-0.332-0.192-0.647-0.393-0.918-0.191-0.172-0.426-0.288-0.679-0.333s-0.513-0.018-0.751 0.077c-0.238 0.096-0.445 0.256-0.597 0.464s-0.243 0.454-0.262 0.71v2.885z"></path>
<path d="M40.734 31.44v-2.82c-0.581 0.326-1.232 0.506-1.897 0.525-0.355 0.043-0.715 0.006-1.055-0.107s-0.649-0.301-0.908-0.549c-0.212-0.131-0.396-0.303-0.542-0.505s-0.251-0.432-0.308-0.675c-0.185-0.55-0.208-1.142-0.065-1.705 0.131-0.572 0.455-1.081 0.916-1.443 0.444-0.274 0.931-0.474 1.439-0.59 0.926-0.087 1.857 0.095 2.682 0.525h0.065v-2.82h-0.065c-0.798-0.278-1.648-0.367-2.486-0.262-0.791 0.017-1.57 0.196-2.29 0.525-0.731 0.304-1.364 0.803-1.832 1.443-0.751 0.946-1.171 2.113-1.194 3.322s0.35 2.392 1.064 3.367c0.709 0.937 1.731 1.589 2.878 1.836 1.231 0.274 2.509 0.251 3.729-0.066h-0.131z"></path>
<path d="M43.548 26.325c0.006 0.816 0.191 1.621 0.541 2.357s0.858 1.387 1.486 1.905c0.634 0.512 1.376 0.872 2.169 1.054s1.618 0.18 2.41-0.005c1.048-0.223 2.006-0.756 2.749-1.53s1.238-1.753 1.421-2.811c0.183-1.058 0.046-2.147-0.395-3.127s-1.163-1.804-2.075-2.368c-0.813-0.496-1.739-0.774-2.689-0.808s-1.894 0.176-2.74 0.612c-0.84 0.478-1.545 1.162-2.048 1.988s-0.789 1.767-0.83 2.734zM47.342 24.293c0.583-0.383 1.265-0.588 1.962-0.59 0.355 0.034 0.7 0.138 1.015 0.307s0.592 0.399 0.817 0.677c0.429 0.565 0.659 1.257 0.654 1.967-0.111 0.721-0.483 1.375-1.047 1.836-0.559 0.439-1.252 0.671-1.963 0.656-0.723-0.098-1.38-0.475-1.832-1.049-0.409-0.576-0.637-1.261-0.654-1.967 0.045-0.36 0.161-0.708 0.341-1.023s0.42-0.591 0.706-0.813z"></path>
</symbol>
<symbol id="icon-ebay" viewBox="0 0 49 32">
<path d="M6.252 11.004c-6.147 0-6.411 4.754-6.323 6.074 0 0-0.351 5.634 6.235 5.634 5.621 0 5.884-3.565 5.884-3.565h-2.591c0 0-0.527 1.893-3.293 1.893-3.557-0.088-3.732-3.521-3.732-3.521h9.88c0 0 0.747-6.514-6.060-6.514zM2.432 15.846c0 0 0.176-3.081 3.732-3.081s3.557 3.081 3.557 3.081h-7.289z"></path>
<path d="M19.118 11.004c-3.118 0-4.391 1.849-4.391 1.849v-6.162h-2.415v13.073c0 0 0 1.541-0.088 2.509h2.415l0.088-1.497c0 0 1.098 1.849 4.391 1.849s5.884-1.981 5.972-5.81c0.088-3.829-2.854-5.722-5.972-5.81zM18.591 20.952c-3.864 0.088-3.776-4.138-3.776-4.138s-0.176-4.050 3.776-4.137c3.952-0.088 3.82 4.226 3.82 4.226s0.088 4.050-3.82 4.050z"></path>
<path d="M36.463 19.675c0-1.717 0.088-3.213 0-4.226s0.088-4.27-5.269-4.446c0 0-5.094-0.44-5.621 3.389h2.591c0 0 0.176-1.717 2.854-1.717s2.942 1.277 2.942 2.773h-2.854c-1.273 0-5.752 0.132-6.191 2.905s2.415 4.358 4.742 4.358c2.327 0 3.601-0.704 4.567-1.937l0.088 1.585h2.239c-0.088-0.088-0.088-0.968-0.088-2.685zM30.009 21.128c0 0-2.503 0-2.591-1.981s3.776-1.981 3.776-1.981h2.766c0 0 0.439 3.961-3.952 3.961z"></path>
<path d="M35.101 11.444h2.854l4.215 8.407 4.128-8.407h2.678l-7.596 14.966h-2.766l2.196-4.138-5.708-10.828z"></path>
</symbol>
<symbol id="icon-icon1" viewBox="0 0 32 32">
<path d="M30.135 2.749c-0.060-0.228-0.18-0.437-0.347-0.604s-0.375-0.287-0.604-0.347c-2.735-0.71-5.615-0.634-8.309 0.221s-5.091 2.453-6.916 4.61l-1.487 1.765-3.473-0.838c-0.844-0.294-1.767-0.273-2.597 0.059s-1.512 0.954-1.919 1.75l-2.934 5.2c-0.103 0.182-0.161 0.386-0.171 0.595s0.030 0.417 0.116 0.608c0.086 0.191 0.215 0.358 0.378 0.49s0.354 0.223 0.559 0.266l4.097 0.878c-0.347 1.056-0.595 2.143-0.74 3.245-0.026 0.203-0.006 0.408 0.060 0.602s0.175 0.369 0.32 0.513l4.133 4.133c0.124 0.124 0.271 0.222 0.432 0.289s0.335 0.102 0.51 0.102c0.038 0 0.077-0.002 0.116-0.005 1.127-0.101 2.24-0.32 3.322-0.653l0.858 4.004c0.044 0.204 0.135 0.396 0.267 0.558s0.299 0.292 0.49 0.378c0.191 0.086 0.399 0.126 0.608 0.116s0.413-0.068 0.595-0.171l5.207-2.937c0.733-0.445 1.305-1.112 1.635-1.904s0.399-1.668 0.198-2.501l-0.892-3.679 1.649-1.517c2.165-1.82 3.77-4.218 4.626-6.914s0.929-5.58 0.211-8.316zM4.763 14.298l2.075-3.68c0.129-0.25 0.348-0.441 0.614-0.534s0.556-0.081 0.813 0.033l2.29 0.555-0.867 1.029c-0.822 0.985-1.532 2.057-2.119 3.197l-2.805-0.601zM21.39 25.26l-3.621 2.042-0.573-2.673c1.161-0.579 2.242-1.305 3.218-2.16l0.991-0.912 0.538 2.219c0.070 0.274 0.054 0.563-0.045 0.828s-0.276 0.493-0.509 0.655zM23.542 15.973l-4.913 4.515c-1.945 1.682-4.343 2.751-6.894 3.072l-3.206-3.206c0.431-2.557 1.536-4.954 3.201-6.941l2.238-2.657c0.037-0.039 0.072-0.080 0.104-0.124l1.913-2.272c1.415-1.671 3.247-2.936 5.311-3.667s4.284-0.901 6.435-0.493c0.418 2.158 0.25 4.388-0.487 6.458s-2.016 3.905-3.703 5.314zM22.311 7.755c-0.396 0-0.782 0.117-1.111 0.337s-0.585 0.532-0.737 0.898c-0.151 0.365-0.191 0.768-0.114 1.156s0.268 0.744 0.547 1.024c0.28 0.28 0.636 0.47 1.024 0.547s0.79 0.038 1.156-0.114c0.365-0.151 0.678-0.408 0.898-0.737s0.337-0.716 0.337-1.111c0-0.263-0.052-0.523-0.152-0.765s-0.248-0.463-0.434-0.649c-0.186-0.186-0.406-0.333-0.649-0.434s-0.503-0.152-0.765-0.152v0z"></path>
</symbol>
<symbol id="icon-icon2" viewBox="0 0 32 32">
<path d="M20.947 16.947c1.307-1.028 2.261-2.439 2.73-4.035s0.428-3.298-0.117-4.87c-0.544-1.572-1.565-2.935-2.92-3.899s-2.977-1.483-4.64-1.483c-1.663 0-3.285 0.518-4.64 1.483s-2.376 2.328-2.92 3.899c-0.544 1.572-0.585 3.274-0.117 4.87s1.422 3.006 2.73 4.035c-2.24 0.897-4.194 2.386-5.655 4.307s-2.372 4.202-2.639 6.6c-0.019 0.175-0.004 0.352 0.045 0.521s0.131 0.327 0.241 0.464c0.223 0.278 0.546 0.455 0.9 0.494s0.708-0.064 0.986-0.287c0.278-0.223 0.455-0.546 0.494-0.9 0.293-2.606 1.536-5.014 3.491-6.762s4.486-2.714 7.109-2.714 5.154 0.966 7.109 2.714c1.955 1.748 3.198 4.155 3.491 6.762 0.036 0.328 0.193 0.63 0.439 0.849s0.565 0.339 0.895 0.337h0.147c0.349-0.040 0.669-0.217 0.889-0.492s0.322-0.625 0.285-0.975c-0.267-2.405-1.184-4.692-2.652-6.616s-3.432-3.412-5.681-4.304zM16 16c-1.055 0-2.086-0.313-2.963-0.899s-1.561-1.419-1.964-2.394c-0.404-0.975-0.509-2.047-0.303-3.081s0.714-1.985 1.46-2.731c0.746-0.746 1.696-1.254 2.731-1.46s2.107-0.1 3.081 0.303c0.975 0.404 1.808 1.087 2.393 1.964s0.899 1.908 0.899 2.963c0 1.414-0.562 2.771-1.562 3.771s-2.357 1.562-3.771 1.562z"></path>
</symbol>
<symbol id="icon-icon3" viewBox="0 0 32 32">
<path d="M26.173 4.867c-0.155-0.125-0.336-0.214-0.53-0.26s-0.396-0.048-0.59-0.006c-1.425 0.299-2.896 0.302-4.322 0.011s-2.778-0.871-3.972-1.704c-0.223-0.155-0.488-0.238-0.76-0.238s-0.537 0.083-0.76 0.238c-1.194 0.833-2.545 1.413-3.972 1.704s-2.897 0.287-4.322-0.011c-0.195-0.042-0.396-0.040-0.59 0.006s-0.375 0.135-0.53 0.26c-0.155 0.125-0.279 0.284-0.365 0.464s-0.129 0.377-0.129 0.576v9.933c-0.001 1.912 0.454 3.796 1.329 5.496s2.142 3.167 3.698 4.277l4.867 3.467c0.226 0.161 0.496 0.247 0.773 0.247s0.548-0.086 0.773-0.247l4.867-3.467c1.556-1.111 2.824-2.577 3.698-4.277s1.33-3.584 1.329-5.496v-9.933c0.001-0.199-0.043-0.396-0.129-0.576s-0.21-0.339-0.365-0.464zM24 15.84c0.001 1.486-0.353 2.951-1.032 4.273s-1.665 2.462-2.874 3.327l-4.093 2.92-4.093-2.92c-1.209-0.864-2.195-2.005-2.874-3.327s-1.033-2.787-1.032-4.273v-8.4c2.795 0.239 5.595-0.409 8-1.853 2.405 1.444 5.205 2.093 8 1.853v8.4z"></path>
</symbol>
<symbol id="icon-kaiser" viewBox="0 0 70 32">
<path d="M12.658 10.696c-0.209-0.216-0.464-0.382-0.746-0.484l-0.439 8.935 2.196-6.162c0.22-0.924-0.307-1.717-1.010-2.289zM9.013 10.168l1.317 8.891 1.273-8.891c-0.836-0.31-1.755-0.31-2.591 0zM7.959 10.696c-0.703 0.572-1.229 1.364-1.010 2.289l2.196 6.162-0.439-8.935c-0.287 0.093-0.544 0.26-0.746 0.484zM3.481 11.532c1.493 2.553 2.986 5.37 4.435 7.879-0.483-2.201-1.010-5.81-1.8-6.823s-2.635-1.056-2.635-1.056zM0.846 12.809l6.060 7.043-3.732-8.275c-0.457 0.010-0.905 0.127-1.309 0.341s-0.753 0.519-1.018 0.892zM13.492 14.701l-0.966 4.842c1.273-2.245 2.591-4.446 3.82-6.735-1.229 0.132-2.415 0.572-2.854 1.893zM16.698 12.809l-3.206 7.175 5.621-6.162c-0.642-0.641-1.509-1.004-2.415-1.012zM0.055 16.022l5.928 4.578-5.313-7.527c-0.479 0.905-0.692 1.928-0.615 2.949zM19.815 14.701c-0.122-0.233-0.286-0.442-0.483-0.616l-4.83 6.602c1.888-1.409 3.776-2.861 5.621-4.358 0.055-0.561-0.052-1.126-0.307-1.629zM0.099 19.103l5.138 2.333-5.138-5.018v2.685zM20.123 19.235v-2.421l-4.874 4.754c1.669-0.748 3.205-1.541 4.874-2.333zM0.055 21.436l4.655 1.1-4.655-3.125v2.025zM20.123 21.568v-1.849c-1.449 0.924-2.986 1.893-4.303 2.817l4.303-0.968zM0.055 23.769h4.567l-4.567-1.937v1.937zM20.123 23.769v-1.805l-4.172 1.805h4.172z"></path>
<path d="M18.543 10.432c0.088-2.685-3.952-2.729-3.864 0s3.996 2.641 3.864 0zM5.589 9.023c0.132-2.729-4.084-2.597-3.952 0s4.215 2.817 3.952 0zM10.331 9.596c1.581 0 2.196-1.144 2.239-2.245s-1.010-2.333-2.239-2.333c-1.229 0-2.239 0.704-2.239 2.333 0.044 0.924 0.439 2.201 2.239 2.245zM33.165 15.89h0.878v-5.062h-0.878v5.062zM31.496 14.437l0.483 1.453h0.922l-1.756-5.062h-1.098l-1.449 4.314-1.449-1.849 1.932-2.465h-1.054l-1.756 2.421v-2.421h-0.878v5.062h0.878v-2.465l1.844 2.465h1.010l0.527-1.453h1.844zM30.53 11.62l0.746 2.113h-1.405l0.659-2.113zM39.532 22.36l-0.878-3.697h-1.581v5.106h0.878v-4.358l1.098 4.358h0.922l1.098-4.358v4.358h0.834v-5.106h-1.493l-0.878 3.697zM44.099 18.663l-1.756 5.106h0.878l0.483-1.497h1.844l0.483 1.497h0.922l-1.757-5.106h-1.098zM43.923 21.612l0.659-2.157 0.747 2.157h-1.405zM50.51 22.58l-2.020-3.918h-1.141v5.106h0.834v-3.829l2.020 3.829h1.141v-5.106h-0.834v3.918zM67.152 23.021h-2.064v-1.409h1.493v-0.792h-1.493v-1.409h1.888v-0.748h-2.766v5.106h2.942v-0.748zM59.16 18.663h-0.176v3.962l-2.020-3.962h-1.141v4.358h-2.679v-1.409h1.537v-0.792h-1.537v-1.409h1.888v-0.748h-2.766v5.106h4.391v-3.873l1.976 3.873h1.185v-4.358h1.581v4.358h0.878v-4.358h1.493v-0.748h-4.611zM35.843 21.216c0.152-0.14 0.273-0.31 0.357-0.499s0.126-0.394 0.126-0.601c-0.001-0.2-0.044-0.398-0.128-0.58s-0.204-0.344-0.355-0.476c-0.433-0.309-0.964-0.45-1.493-0.396h-1.449v4.358h-2.679v-1.409h1.537v-0.792h-1.537v-1.409h1.888v-0.748h-2.766v5.106h4.435v-2.157h0.395c0.439 0.616 1.317 2.157 1.317 2.157h1.010l-1.361-2.245c0.26-0.028 0.506-0.136 0.703-0.308zM33.78 20.864v-1.453h0.703c0.703 0 0.966 0.308 0.966 0.704s-0.263 0.748-0.966 0.748h-0.703zM42.913 13.777h0.439c0.395 0.572 1.23 2.113 1.23 2.113h1.054l-1.361-2.201c0.252-0.043 0.483-0.167 0.658-0.352 0.151-0.132 0.272-0.294 0.355-0.476s0.127-0.38 0.128-0.58c0.012-0.202-0.025-0.405-0.11-0.589s-0.213-0.345-0.373-0.468c-0.416-0.31-0.933-0.451-1.449-0.396h-1.449v4.358h-2.722v-1.453h1.581v-0.748h-1.581v-1.409h1.932v-0.748h-2.766v5.062h4.435v-2.113zM42.913 12.985v-1.409h0.746c0.659 0 0.922 0.264 0.922 0.704s-0.263 0.704-0.922 0.704h-0.746zM28.291 19.059c-0.399-0.311-0.903-0.453-1.405-0.396h-1.493v5.106h0.878v-2.069h0.615c0.502 0.057 1.006-0.085 1.405-0.396 0.166-0.141 0.299-0.316 0.39-0.514s0.138-0.413 0.137-0.631c0.007-0.212-0.037-0.423-0.129-0.615s-0.228-0.358-0.398-0.485zM26.973 20.908h-0.703v-1.453h0.703c0.703 0 0.966 0.264 0.966 0.704s-0.307 0.748-0.966 0.748zM37.907 14.437c0-0.704-0.439-1.188-1.317-1.497s-1.010-0.44-1.010-0.836c0-0.396 0.307-0.66 0.922-0.66 0.369-0.010 0.733 0.081 1.054 0.264v-0.704c-0.321-0.183-0.685-0.274-1.054-0.264-1.098 0-1.8 0.616-1.8 1.409s0.571 1.188 1.405 1.497c0.834 0.308 0.922 0.44 0.922 0.88s-0.351 0.704-0.966 0.704c-0.477 0.011-0.949-0.111-1.361-0.352v0.792c0.412 0.195 0.861 0.3 1.317 0.308 1.273 0 1.888-0.748 1.888-1.541zM67.766 22.712c0-0.174 0.052-0.344 0.148-0.489s0.234-0.258 0.394-0.324 0.337-0.084 0.508-0.050c0.17 0.034 0.327 0.118 0.449 0.241s0.206 0.28 0.241 0.451c0.034 0.171 0.016 0.348-0.050 0.509s-0.179 0.298-0.323 0.395c-0.145 0.097-0.314 0.148-0.488 0.148-0.115 0-0.23-0.023-0.336-0.067s-0.203-0.109-0.285-0.191c-0.082-0.082-0.146-0.179-0.19-0.286s-0.067-0.221-0.067-0.337zM68.645 23.769c0.208 0 0.412-0.062 0.585-0.178s0.309-0.281 0.388-0.474c0.080-0.193 0.1-0.405 0.060-0.61s-0.141-0.393-0.288-0.541c-0.148-0.148-0.335-0.248-0.54-0.289s-0.416-0.020-0.609 0.060c-0.193 0.080-0.357 0.215-0.473 0.389s-0.178 0.378-0.178 0.587c0 0.28 0.111 0.549 0.309 0.747s0.466 0.309 0.745 0.309zM68.425 22.801h0.22l0.307 0.528h0.22l-0.395-0.528c0.22-0.044 0.352-0.132 0.352-0.352s-0.132-0.352-0.439-0.352h-0.483v1.232h0.22v-0.528zM68.425 22.624v-0.396h0.263c0.088 0 0.263 0.044 0.263 0.22s-0.176 0.176-0.307 0.176h-0.22z"></path>
</symbol>
<symbol id="icon-nasa" viewBox="0 0 38 32">
<path d="M17.733 1.761c0.035 0 0.068-0.014 0.093-0.039s0.039-0.058 0.039-0.093c0-0.035-0.014-0.069-0.039-0.093s-0.058-0.039-0.093-0.039c-0.035 0-0.068 0.014-0.093 0.039s-0.039 0.058-0.039 0.093c0 0.017 0.003 0.034 0.010 0.051s0.016 0.031 0.029 0.043c0.012 0.012 0.027 0.022 0.043 0.029s0.033 0.010 0.050 0.010z"></path>
<path d="M18.611 3.741c0.039-0.010 0.073-0.033 0.097-0.065s0.036-0.071 0.035-0.111c0-0.035-0.014-0.069-0.039-0.093s-0.058-0.039-0.093-0.039c-0.132 0-0.176 0.044-0.176 0.132 0 0.047 0.018 0.091 0.051 0.124s0.078 0.052 0.124 0.052z"></path>
<path d="M20.896 6.603c-0.088 0-0.132 0.088-0.132 0.176s0.044 0.176 0.132 0.176c0.047 0 0.091-0.019 0.124-0.052s0.051-0.078 0.051-0.125c0-0.047-0.018-0.091-0.051-0.125s-0.078-0.052-0.124-0.052z"></path>
<path d="M17.205 4.798c0.035 0 0.068-0.014 0.093-0.039s0.039-0.058 0.039-0.093c0-0.017-0.003-0.035-0.010-0.051s-0.016-0.031-0.029-0.043c-0.012-0.012-0.027-0.022-0.043-0.029s-0.033-0.010-0.050-0.010l-0.132 0.132c0 0.035 0.014 0.069 0.039 0.093s0.058 0.039 0.093 0.039z"></path>
<path d="M18.611 5.282c-0.035 0-0.068 0.014-0.093 0.039s-0.039 0.058-0.039 0.093 0.014 0.069 0.039 0.093c0.025 0.025 0.058 0.039 0.093 0.039s0.068-0.014 0.093-0.039c0.025-0.025 0.039-0.058 0.039-0.093s-0.014-0.069-0.039-0.093c-0.025-0.025-0.058-0.039-0.093-0.039z"></path>
<path d="M16.766 3.521c0.047 0 0.091-0.019 0.124-0.052s0.051-0.078 0.051-0.124c0-0.088-0.088-0.132-0.176-0.132s-0.176 0.044-0.176 0.132c0 0.088 0.088 0.176 0.176 0.176z"></path>
<path d="M14.703 4.754c0.035 0 0.068-0.014 0.093-0.039s0.039-0.058 0.039-0.093c0-0.044-0.044-0.088-0.132-0.088s-0.132 0.044-0.132 0.088c0 0.035 0.014 0.069 0.039 0.093s0.058 0.039 0.093 0.039z"></path>
<path d="M15.099 5.018c0.035 0 0.068-0.014 0.093-0.039s0.039-0.058 0.039-0.093l-0.132-0.132c-0.035 0-0.068 0.014-0.093 0.039s-0.039 0.058-0.039 0.093 0.014 0.069 0.039 0.093c0.025 0.025 0.058 0.039 0.093 0.039z"></path>
<path d="M15.45 5.282c0.035 0 0.068-0.014 0.093-0.039s0.039-0.058 0.039-0.093-0.014-0.069-0.039-0.093c-0.025-0.025-0.058-0.039-0.093-0.039s-0.068 0.014-0.093 0.039c-0.025 0.025-0.039 0.058-0.039 0.093s0.014 0.069 0.039 0.093c0.025 0.025 0.058 0.039 0.093 0.039z"></path>
<path d="M14.747 5.634c0 0.035 0.014 0.069 0.039 0.093s0.058 0.039 0.093 0.039 0.068-0.014 0.093-0.039c0.025-0.025 0.039-0.058 0.039-0.093 0-0.044-0.044-0.088-0.132-0.088s-0.132 0.044-0.132 0.088z"></path>
<path d="M11.894 7.615c-0.035 0-0.068 0.014-0.093 0.039s-0.039 0.058-0.039 0.093 0.014 0.069 0.039 0.093c0.025 0.025 0.058 0.039 0.093 0.039s0.068-0.014 0.093-0.039c0.025-0.025 0.039-0.058 0.039-0.093s-0.014-0.069-0.039-0.093c-0.025-0.025-0.058-0.039-0.093-0.039z"></path>
<path d="M12.464 8.319c-0.088 0-0.132 0.044-0.132 0.088 0 0.017 0.003 0.034 0.010 0.050s0.016 0.031 0.029 0.043c0.012 0.012 0.027 0.022 0.043 0.029s0.033 0.010 0.050 0.010c0.035 0 0.068-0.014 0.093-0.039s0.039-0.058 0.039-0.093c0-0.044-0.088-0.088-0.132-0.088z"></path>
<path d="M12.026 19.455c0.073 0 0.132-0.059 0.132-0.132s-0.059-0.132-0.132-0.132-0.132 0.059-0.132 0.132c0 0.073 0.059 0.132 0.132 0.132z"></path>
<path d="M12.070 22.14c-0.035 0-0.069 0.010-0.098 0.030s-0.051 0.047-0.065 0.079-0.017 0.068-0.010 0.102c0.007 0.034 0.024 0.066 0.048 0.090s0.056 0.041 0.090 0.048c0.034 0.007 0.069 0.003 0.102-0.010s0.060-0.036 0.079-0.065c0.019-0.029 0.030-0.063 0.030-0.098 0-0.047-0.019-0.091-0.051-0.125s-0.078-0.052-0.124-0.052z"></path>
<path d="M10.401 23.725c-0.035 0-0.068 0.014-0.093 0.039s-0.039 0.058-0.039 0.093 0.014 0.069 0.039 0.093c0.025 0.025 0.058 0.039 0.093 0.039s0.068-0.014 0.093-0.039c0.025-0.025 0.039-0.058 0.039-0.093s-0.014-0.069-0.039-0.093c-0.025-0.025-0.058-0.039-0.093-0.039z"></path>
<path d="M8.336 24.297c-0.035 0-0.069 0.010-0.098 0.030s-0.051 0.047-0.065 0.079-0.017 0.068-0.010 0.102c0.007 0.034 0.024 0.066 0.048 0.090s0.056 0.041 0.090 0.048 0.069 0.003 0.101-0.010c0.032-0.013 0.060-0.036 0.079-0.065s0.030-0.063 0.030-0.098c-0.044-0.088-0.088-0.176-0.176-0.176z"></path>
<path d="M7.897 22.933c-0.035 0-0.068 0.014-0.093 0.039s-0.039 0.058-0.039 0.093c0 0.088 0.044 0.176 0.132 0.176 0.047 0 0.091-0.019 0.124-0.052s0.051-0.078 0.051-0.125c0-0.088-0.088-0.132-0.176-0.132z"></path>
<path d="M7.721 23.857c-0.088 0-0.132 0.044-0.132 0.088 0 0.035 0.014 0.069 0.039 0.093s0.058 0.039 0.093 0.039 0.068-0.014 0.093-0.039c0.025-0.025 0.039-0.058 0.039-0.093 0-0.044-0.088-0.088-0.132-0.088z"></path>
<path d="M6.185 23.109c-0.035 0-0.068 0.014-0.093 0.039s-0.039 0.058-0.039 0.093 0.014 0.069 0.039 0.093c0.025 0.025 0.058 0.039 0.093 0.039s0.068-0.014 0.093-0.039c0.025-0.025 0.039-0.058 0.039-0.093s-0.014-0.069-0.039-0.093c-0.025-0.025-0.058-0.039-0.093-0.039z"></path>
<path d="M11.629 25.706c0-0.035-0.014-0.069-0.039-0.093s-0.058-0.039-0.093-0.039-0.068 0.014-0.093 0.039c-0.025 0.025-0.039 0.058-0.039 0.093s0.014 0.069 0.039 0.093c0.025 0.025 0.058 0.039 0.093 0.039s0.068-0.014 0.093-0.039c0.025-0.025 0.039-0.058 0.039-0.093z"></path>
<path d="M13.21 24.517c0-0.035-0.014-0.069-0.039-0.093s-0.058-0.039-0.093-0.039c-0.088 0-0.176 0.044-0.176 0.132 0 0.047 0.018 0.091 0.051 0.125s0.078 0.052 0.124 0.052c0.088 0 0.132-0.088 0.132-0.176z"></path>
<path d="M13.298 25.926c-0.035 0-0.068 0.014-0.093 0.039s-0.039 0.058-0.039 0.093c0 0.035 0.014 0.069 0.039 0.093s0.058 0.039 0.093 0.039c0.030-0.011 0.058-0.029 0.081-0.051s0.040-0.050 0.051-0.081c0-0.035-0.014-0.069-0.039-0.093s-0.058-0.039-0.093-0.039z"></path>
<path d="M19.885 24.473c-0.035 0-0.068 0.014-0.093 0.039s-0.039 0.058-0.039 0.093 0.014 0.069 0.039 0.093c0.025 0.025 0.058 0.039 0.093 0.039 0.030-0.011 0.058-0.029 0.081-0.051s0.040-0.050 0.051-0.081c0-0.035-0.014-0.069-0.039-0.093s-0.058-0.039-0.093-0.039z"></path>
<path d="M16.812 25.574c-0.035 0-0.068 0.014-0.093 0.039s-0.039 0.058-0.039 0.093c0 0.044 0.044 0.088 0.132 0.088s0.132-0.044 0.132-0.088c0-0.035-0.014-0.069-0.039-0.093s-0.058-0.039-0.093-0.039z"></path>
<path d="M25.067 27.114c-0.035 0-0.068 0.014-0.093 0.039s-0.039 0.058-0.039 0.093c0 0.035 0.014 0.069 0.039 0.093s0.058 0.039 0.093 0.039c0.044 0 0.088-0.044 0.088-0.132s-0.044-0.132-0.088-0.132z"></path>
<path d="M25.681 21.304c0.088 0 0.176-0.044 0.176-0.132 0-0.047-0.018-0.091-0.051-0.125s-0.078-0.052-0.124-0.052-0.091 0.019-0.124 0.052c-0.033 0.033-0.051 0.078-0.051 0.125 0 0.088 0.088 0.132 0.176 0.132z"></path>
<path d="M24.452 22.14c0.035 0 0.068-0.014 0.093-0.039s0.039-0.058 0.039-0.093c0-0.035-0.014-0.069-0.039-0.093s-0.058-0.039-0.093-0.039c-0.035 0-0.068 0.014-0.093 0.039s-0.039 0.058-0.039 0.093c0 0.035 0.014 0.069 0.039 0.093s0.058 0.039 0.093 0.039z"></path>
<path d="M25.681 22.448c0.088 0 0.132-0.088 0.132-0.176s-0.044-0.176-0.132-0.176c-0.047 0-0.091 0.019-0.124 0.052s-0.051 0.078-0.051 0.125c0 0.047 0.018 0.091 0.051 0.125s0.078 0.052 0.124 0.052z"></path>
<path d="M24.452 23.945c0.035 0 0.068-0.014 0.093-0.039s0.039-0.058 0.039-0.093c0-0.035-0.014-0.069-0.039-0.093s-0.058-0.039-0.093-0.039-0.068 0.014-0.093 0.039c-0.025 0.025-0.039 0.058-0.039 0.093s0.014 0.069 0.039 0.093 0.058 0.039 0.093 0.039z"></path>
<path d="M27.789 20.292c0-0.035-0.014-0.069-0.039-0.093s-0.058-0.039-0.093-0.039c-0.030 0.011-0.058 0.029-0.081 0.051s-0.040 0.050-0.051 0.081c0 0.035 0.014 0.069 0.039 0.093s0.058 0.039 0.093 0.039 0.068-0.014 0.093-0.039c0.025-0.025 0.039-0.058 0.039-0.093z"></path>
<path d="M27.965 21.216c0.088 0 0.176-0.044 0.176-0.132 0-0.047-0.018-0.091-0.051-0.125s-0.078-0.052-0.124-0.052-0.091 0.019-0.124 0.052c-0.033 0.033-0.051 0.078-0.051 0.125 0 0.088 0.088 0.132 0.176 0.132z"></path>
<path d="M30.159 21.832c-0.039 0.010-0.073 0.033-0.097 0.065s-0.036 0.071-0.035 0.111c0 0.088 0.044 0.176 0.132 0.176 0.047 0 0.091-0.019 0.124-0.052s0.051-0.078 0.051-0.125c0-0.047-0.018-0.091-0.051-0.125s-0.078-0.052-0.124-0.052z"></path>
<path d="M27.964 23.549c-0.035 0-0.068 0.014-0.093 0.039s-0.039 0.058-0.039 0.093 0.014 0.069 0.039 0.093c0.025 0.025 0.058 0.039 0.093 0.039 0.030-0.011 0.058-0.029 0.081-0.051s0.040-0.050 0.051-0.081c0-0.035-0.014-0.069-0.039-0.093s-0.058-0.039-0.093-0.039z"></path>
<path d="M29.369 22.184c-0.035 0-0.068 0.014-0.093 0.039s-0.039 0.058-0.039 0.093 0.014 0.069 0.039 0.093c0.025 0.025 0.058 0.039 0.093 0.039s0.068-0.014 0.093-0.039c0.025-0.025 0.039-0.058 0.039-0.093s-0.014-0.069-0.039-0.093c-0.025-0.025-0.058-0.039-0.093-0.039z"></path>
<path d="M29.106 24.253c-0.030 0.011-0.058 0.029-0.081 0.051s-0.040 0.050-0.051 0.081c0 0.035 0.014 0.069 0.039 0.093s0.058 0.039 0.093 0.039 0.068-0.014 0.093-0.039c0.025-0.025 0.039-0.058 0.039-0.093s-0.014-0.069-0.039-0.093c-0.025-0.025-0.058-0.039-0.093-0.039z"></path>
<path d="M20.807 3.477c0.088 0 0.176-0.044 0.176-0.132l0.351-0.088h-0.351c0-0.088-0.088-0.132-0.176-0.132v-0.044c-0.088 0-0.132 0.044-0.176 0.132h-0.307l0.307 0.088c0 0.047 0.018 0.091 0.051 0.124s0.078 0.052 0.124 0.052z"></path>
<path d="M12.025 27.378c-0.088 0-0.132 0.044-0.176 0.132h-0.351l0.351 0.088c0.010 0.039 0.033 0.073 0.065 0.097s0.071 0.036 0.111 0.035v0.044c0.078-0.035 0.14-0.098 0.176-0.176l0.351-0.088h-0.351c-0.010-0.039-0.033-0.073-0.065-0.097s-0.071-0.036-0.111-0.035z"></path>
<path d="M28.36 24.209l-0.088-0.308v0.308l-0.176 0.176h-0.307l0.307 0.088c0.044 0.044 0.088 0.132 0.176 0.132v0.352l0.088-0.352c0.030-0.011 0.058-0.029 0.081-0.051s0.040-0.050 0.051-0.081l0.351-0.088h-0.351c0-0.088-0.044-0.132-0.132-0.176z"></path>
<path d="M29.809 20.908c-0.035-0.078-0.098-0.141-0.176-0.176-0.047 0-0.091 0.019-0.124 0.052s-0.051 0.078-0.051 0.125c0 0.088 0.088 0.132 0.132 0.176l0.088 0.352v-0.352c0.078-0.035 0.14-0.098 0.176-0.176h-0.044z"></path>
<path d="M13.518 8.275c0.078-0.035 0.14-0.098 0.176-0.176 0-0.047-0.018-0.091-0.051-0.125s-0.078-0.052-0.124-0.052c-0.040-0.001-0.079 0.011-0.111 0.035s-0.055 0.058-0.065 0.097l-0.351 0.088h0.351l0.176 0.132z"></path>
<path d="M22.036 14.041c-0.108 0.003-0.215 0.027-0.313 0.073s-0.186 0.111-0.258 0.191l0.878-0.264h-0.307z"></path>
<path d="M6.098 17.651v0.572l0.132 0.132 1.186-0.352-0.439-0.748-0.878 0.396z"></path>
<path d="M20.763 17.959l1.098-0.704-0.22-0.088-0.615-0.264-1.054 0.704c0.242 0.162 0.509 0.281 0.79 0.352z"></path>
<path d="M26.603 14.085l0.088-0.308-0.395-0.352-2.547 1.717-0.571-0.88-0.395-0.176 0.395 0.616 0.351 0.572-0.132 0.088 0.307 0.176c0.211 0.135 0.403 0.298 0.571 0.484l-0.176-0.264 2.503-1.673z"></path>
<path d="M25.33 18.091c-0.22-0.484-0.439-0.968-0.703-1.453 0.073 0.257 0.102 0.525 0.088 0.792 0.165 0.329 0.311 0.667 0.439 1.012l0.22-0.22c0-0.044-0.044-0.088-0.044-0.132z"></path>
<path d="M21.202 24.341h0.044c6.147 2.597 5.313-2.641 4.435-5.282h-0.263c1.405 4.050 0.746 7.351-4.215 5.282z"></path>
<path d="M17.776 18.311l-1.976-5.018h-2.371l0.351 0.352c0.016 0.018 0.028 0.039 0.036 0.062s0.010 0.047 0.008 0.071l-1.317 4.534h-0.044l-0.439 0.44h1.273l-0.307-0.352c-0.009-0.008-0.017-0.018-0.022-0.030s-0.008-0.024-0.008-0.036c0-0.012 0.003-0.025 0.008-0.036s0.013-0.022 0.022-0.030l0.176-0.704c0.044-0.088 0.088-0.132 0.176-0.132h2.020l0.132 0.088 0.22 0.66c0.009 0.008 0.017 0.018 0.022 0.030s0.008 0.024 0.008 0.036c0 0.012-0.003 0.025-0.008 0.036s-0.013 0.022-0.022 0.030l-0.439 0.44h2.942l-0.395-0.44c-0.007 0.004-0.014 0.006-0.022 0.006s-0.015-0.002-0.022-0.006zM15.098 16.814c0 0.044-0.044 0.088-0.132 0.088h-1.405c-0.023 0-0.046-0.009-0.062-0.026s-0.026-0.039-0.026-0.062c-0.044 0-0.044-0.044-0.044-0.088l0.615-2.113c0-0.044 0.044-0.088 0.132-0.088l0.132 0.088 0.834 2.069c0.002 0.024-0.001 0.048-0.008 0.071s-0.020 0.044-0.036 0.061z"></path>
<path d="M13.825 16.374l0.79-0.176-0.439-1.056-0.351 1.232z"></path>
<path d="M26.998 13.777l-1.273 4.534c-0.012 0-0.023 0.005-0.031 0.013s-0.013 0.019-0.013 0.031l-0.439 0.44h1.23l-0.263-0.352c-0.016-0.018-0.028-0.039-0.036-0.061s-0.010-0.047-0.008-0.071l0.22-0.704c0.029-0.088 0.073-0.132 0.132-0.132h2.064l0.132 0.088 0.22 0.66c0.044 0.044 0 0.088-0.044 0.132l-0.395 0.44h2.942l-0.395-0.44c-0.012 0-0.023-0.005-0.031-0.013s-0.013-0.019-0.013-0.031l-1.976-5.018h-2.459l0.395 0.352c0.044 0.044 0.088 0.088 0.044 0.132zM27.394 14.525l0.132 0.088 0.834 2.069c0.002 0.024-0.001 0.048-0.008 0.071s-0.020 0.044-0.036 0.061c0 0.023-0.009 0.046-0.026 0.062s-0.039 0.026-0.062 0.026h-1.537c-0.016-0.018-0.028-0.039-0.035-0.061s-0.010-0.047-0.008-0.071l0.615-2.069c-0.007-0.021-0.009-0.043-0.006-0.064s0.012-0.042 0.025-0.059c0.013-0.017 0.030-0.031 0.050-0.041s0.041-0.013 0.063-0.012z"></path>
<path d="M5.834 18.355c-0.044-0.044-0.044-0.044-0.044-0.088v-3.081c0-0.044 0.044-0.132 0.088-0.132s0.132 0 0.176 0.088l2.152 3.653h2.152l-0.439-0.44c-0.025-0.023-0.041-0.054-0.044-0.088v-4.622l0.351-0.352h-1.229l0.351 0.352v3.125c0 0.044-0.044 0.132-0.088 0.132h-0.176l-2.108-3.565h-2.108l0.307 0.352v4.578c0 0.044 0 0.088-0.044 0.088l-0.395 0.44h1.361l-0.263-0.44z"></path>
<path d="M19.709 15.142c0.044 0.836 0.659 1.144 1.361 1.453 0.203 0.125 0.426 0.215 0.659 0.264 0.615 0.22 1.142 0.44 1.142 0.88-0.021 0.146-0.081 0.283-0.176 0.396-0.265 0.197-0.593 0.291-0.922 0.264-0.721 0.013-1.428-0.203-2.020-0.616v1.232l0.483-0.308h0.132c0.836 0.349 1.768 0.395 2.635 0.132 0.514-0.161 0.952-0.505 1.23-0.968 0.087-0.194 0.132-0.404 0.132-0.616s-0.045-0.423-0.132-0.616c-0.245-0.466-0.651-0.826-1.142-1.012l-0.351-0.132-1.361-0.572c-0.096-0.047-0.174-0.124-0.221-0.219s-0.062-0.204-0.042-0.309c0.049-0.182 0.159-0.342 0.31-0.454s0.336-0.169 0.524-0.162c0.661-0.019 1.31 0.182 1.844 0.572v-1.232l-0.395 0.264c-0.044 0-0.088 0.044-0.132 0-0.784-0.276-1.641-0.26-2.415 0.044-0.275 0.135-0.527 0.314-0.746 0.528l-0.263 0.308c-0.132 0.273-0.178 0.58-0.132 0.88z"></path>
<path d="M20.149 13.953v0z"></path>
<path d="M38.108 1.629c-1.625 2.333-4.040 4.314-6.85 6.030-0.663-1.067-1.444-2.057-2.327-2.949-2.235-2.234-5.080-3.754-8.176-4.37s-6.305-0.298-9.221 0.912-5.41 3.258-7.167 5.887c-1.757 2.629-2.698 5.72-2.704 8.884-0.001 1.17 0.131 2.337 0.395 3.477l-2.064 1.188 0.395 0.132 1.756-0.924c0.716 2.8 2.172 5.355 4.215 7.395l0.176 0.176c-0.746 0.66-1.493 1.364-2.196 2.113v0.528c0.834-0.792 1.713-1.541 2.591-2.289 2.29 2.059 5.124 3.411 8.162 3.895s6.151 0.079 8.965-1.166c2.814-1.245 5.21-3.278 6.9-5.855s2.602-5.587 2.628-8.67c0.002-2.177-0.431-4.332-1.273-6.338 2.766-2.465 4.83-5.062 5.796-8.055zM33.234 16.022c0.003 2.050-0.404 4.079-1.196 5.969s-1.953 3.602-3.415 5.035c-1.436 1.458-3.145 2.616-5.028 3.41s-3.906 1.205-5.949 1.212c-3.875 0.009-7.609-1.454-10.451-4.094 2.81-2.333 5.796-4.49 8.738-6.47 0.615 0.836 1.669 2.157 2.195 1.717s-0.746-1.056-1.756-1.981l3.118-2.069v-0.792l-1.010 0.66 0.264 0.22c0.044 0.044 0.044 0.088 0.044 0.176l-0.132 0.088h-0.878l-1.8 1.188-0.966-1.188h-0.044l-0.132-0.088c-0.044-0.044 0-0.088 0-0.132s-0.571-0.704-0.834-1.1h-0.483c0.703 0.968 1.361 1.849 2.064 2.685 0 0.012 0.005 0.023 0.013 0.031s0.019 0.013 0.031 0.013c-3.061 2.028-5.981 4.264-8.738 6.691-0.088-0.044-0.132-0.132-0.176-0.176-2.021-2.015-3.462-4.54-4.172-7.307l1.844-0.704c-0.044-0.088-0.044-0.132 0-0.176l0.659-0.616v-0.132l-2.635 1.232c-0.225-1.086-0.343-2.192-0.351-3.301 0.006-3.398 1.116-6.701 3.163-9.409s4.918-4.674 8.179-5.599c3.261-0.925 6.735-0.76 9.894 0.471s5.832 3.46 7.614 6.351c-1.559 0.918-3.172 1.741-4.83 2.465-0.834 0.352-1.669 0.748-2.547 1.056l-1.932 0.748c-2.020-2.509-4.523-4.798-7.114-5.942-5.445-2.421-5.884 3.125-2.898 8.583l0.439 0.704-1.844 0.616v1.232l2.459-0.616 0.483-1.629-0.834 0.308-0.527-1.056c-3.908-8.011-0.527-10.52 5.050-6.426 1.663 1.281 3.18 2.742 4.523 4.358l-4.962 1.717 0.659 1.629c0.801-0.179 1.593-0.399 2.371-0.66 0.050-0.388 0.203-0.756 0.442-1.066s0.557-0.549 0.919-0.695c0.352-0.139 0.721-0.228 1.098-0.264h0.351c0.372 0.016 0.74 0.075 1.098 0.176l0.571-0.352h0.132c0.023 0 0.046 0.009 0.062 0.026s0.026 0.039 0.026 0.062v0.572l2.327-0.968c1.857-0.86 3.623-1.908 5.269-3.125-1.449 1.276-3.074 2.465-4.786 3.697h1.23c1.34-0.959 2.63-1.988 3.864-3.081 0.813 1.937 1.231 4.017 1.229 6.118z"></path>
</symbol>
<symbol id="icon-polygon" viewBox="0 0 28 32">
<path d="M27 14.268c1.333 0.77 1.333 2.694 0 3.464l-24 13.856c-1.333 0.77-3-0.192-3-1.732v-27.713c0-1.54 1.667-2.502 3-1.732l24 13.856z"></path>
</symbol>
<symbol id="icon-redfin" viewBox="0 0 50 32">
<path d="M25.89 11.708c-0.922-0.616-2.152-0.836-3.82-0.836h-3.074v10.344h3.162c0.988 0.020 1.97-0.145 2.898-0.484 0.793-0.316 1.458-0.89 1.888-1.629 0.483-0.937 0.71-1.984 0.659-3.037 0.028-0.911-0.106-1.82-0.395-2.685-0.264-0.676-0.722-1.259-1.317-1.673zM25.056 17.871c-0.118 0.476-0.397 0.896-0.79 1.188-0.564 0.311-1.201 0.463-1.844 0.44h-1.098v-6.911h0.922c0.922 0 1.625 0.132 2.064 0.484 0.353 0.265 0.614 0.635 0.746 1.056 0.154 0.604 0.228 1.225 0.22 1.849 0.005 0.638-0.069 1.273-0.22 1.893z"></path>
<path d="M29.095 21.216h2.327v-4.402h2.722v-1.673h-2.722v-2.553h4.215v-1.717h-6.543v10.344z"></path>
<path d="M37.131 21.216h2.327v-10.344h-2.327c0 0-0.044 10.344 0 10.344z"></path>
<path d="M49.821 10.872h-2.371v5.942l-4.391-5.942h-1.844v10.344h2.327v-6.074l4.347 6.074h1.932v-10.344z"></path>
<path d="M10.082 21.612c-0.176-0.088-0.395-0.264-0.922-1.144l-1.054-1.761-1.229-2.069-0.132-0.176 0.176-0.088c1.449-0.484 2.283-1.805 2.283-3.653 0.006-0.46-0.089-0.915-0.279-1.333s-0.469-0.79-0.819-1.088c-0.088-0.132-0.22-0.176-0.307-0.264-0.966-0.66-2.239-0.88-3.952-0.88h-3.293c-0.22 0-0.22 0.132-0.176 0.22 0.13 0.163 0.207 0.363 0.22 0.572v10.344c-0.044 0.44-0.132 0.572-0.22 0.66s-0.044 0.264 0.176 0.264h2.415v-4.402h1.098l0.747 1.276 0.966 1.673 0.483 0.792c0.571 0.968 1.098 1.541 2.152 1.673h0.615c0.332-0.021 0.658-0.096 0.966-0.22h0.088c0.263-0.176 0.176-0.352 0-0.396zM4.462 15.098h-1.493v-4.226h1.493c0.79 0 1.361 0.088 1.8 0.484 0.142 0.174 0.26 0.367 0.351 0.572 0.112 0.311 0.172 0.638 0.176 0.968 0 0.572-0.088 2.201-2.327 2.201z"></path>
<path d="M13.156 16.814h2.723v-1.673h-2.723v-2.553h4.215v-1.717h-6.543v10.344h6.543v-1.717h-4.215v-2.685z"></path>
</symbol>
<symbol id="icon-toyota" viewBox="0 0 28 32">
<path d="M13.807 14.129h1.888c-0.307-1.981-1.010-3.389-1.888-3.389s-1.581 1.409-1.888 3.389h1.888zM12.885 24.253c-1.361-0.88-2.459-3.962-2.459-7.659v-0.396c-4.084-0.704-6.938-2.377-7.026-4.358-0.969 1.125-1.499 2.563-1.493 4.050 0 4.402 4.83 8.099 10.978 8.363zM13.807 21.48c1.098 0 2.064-2.289 2.064-5.15-0.685 0.073-1.375 0.103-2.064 0.088-0.704 0.015-1.408-0.015-2.108-0.088 0.132 2.861 1.010 5.15 2.108 5.15zM14.685 24.253c6.148-0.264 11.022-3.962 11.022-8.363 0.006-1.486-0.524-2.924-1.493-4.050-0.088 1.981-2.986 3.653-7.026 4.358v0.396c0 3.697-1.098 6.779-2.503 7.659zM13.807 8.451c-5.664 0-12.515 3.961-3.205 5.458 0.527-3.081 1.713-5.458 3.205-5.458zM13.895 8.451c2.196 0 2.898 4.182 3.074 5.458 2.898-0.396 4.874-1.497 4.874-2.685s-3.469-2.773-7.948-2.773zM0.019 16.33c0-4.974 6.148-8.979 13.788-8.979s13.788 4.005 13.788 8.979c0 4.974-6.148 8.847-13.788 8.847s-13.788-4.005-13.788-8.847z"></path>
</symbol>
</defs>
</svg>
