<svg width="63" height="73" viewBox="0 0 63 73" fill="none" xmlns="http://www.w3.org/2000/svg">
<mask id="mask0_57_30" style="mask-type:alpha" maskUnits="userSpaceOnUse" x="0" y="0" width="63" height="73">
<rect width="63" height="73" fill="#D9D9D9"/>
</mask>
<g mask="url(#mask0_57_30)">
<path fill-rule="evenodd" clip-rule="evenodd" d="M31.4974 32.2323H35.8047C35.1035 27.7138 33.5008 24.5006 31.4974 24.5006C29.4939 24.5006 27.8912 27.7138 27.19 32.2323H31.4974ZM29.3938 55.3273C26.2885 53.319 23.7842 46.2901 23.7842 37.8555V36.9517C14.4683 35.3451 7.95712 31.5295 7.75678 27.0109C5.54737 29.5778 4.33785 32.8586 4.35099 36.2489C4.35099 46.2901 15.3698 54.7248 29.3938 55.3273ZM31.4974 49.0013C34.0017 49.0013 36.2054 43.7798 36.2054 37.253C34.6419 37.42 33.0694 37.487 31.4974 37.4538C29.892 37.4873 28.2862 37.4202 26.6892 37.253C26.9897 43.7798 28.9931 49.0013 31.4974 49.0013ZM33.5008 55.3273C47.5248 54.7248 58.6438 46.2901 58.6438 36.2489C58.6569 32.8586 57.4474 29.5778 55.238 27.0109C55.0376 31.5295 48.4263 35.3451 39.2106 36.9517V37.8555C39.2106 46.2901 36.7063 53.319 33.5008 55.3273ZM31.4974 19.2791C18.5753 19.2791 2.94858 28.3163 24.1849 31.7303C25.3869 24.7014 28.0916 19.2791 31.4974 19.2791ZM31.6977 19.2791C36.7063 19.2791 38.309 28.8183 38.7097 31.7303C45.321 30.8266 49.8287 28.3163 49.8287 25.6051C49.8287 22.894 41.9152 19.2791 31.6977 19.2791ZM0.0435791 37.253C0.0435791 25.9063 14.0676 16.7688 31.4974 16.7688C48.9272 16.7688 62.9512 25.9063 62.9512 37.253C62.9512 48.5996 48.9272 57.4359 31.4974 57.4359C14.0676 57.4359 0.0435791 48.2984 0.0435791 37.253Z" fill="black" fill-opacity="0.7"/>
</g>
</svg>
